<svg id="Layer_1" data-name="Layer 1" xmlns="http://www.w3.org/2000/svg" xmlns:xlink="http://www.w3.org/1999/xlink" viewBox="0 0 1536 731"><defs><style>.cls-1{fill:none;}.cls-2{clip-path:url(#clip-path);}.cls-3{fill:#f5f6f7;}.cls-4{fill:url(#linear-gradient);}.cls-31,.cls-5,.cls-7{fill:#fff;}.cls-5{opacity:0.19;isolation:isolate;}.cls-6{clip-path:url(#clip-path-2);}.cls-7{stroke:#707070;stroke-linecap:round;}.cls-8{clip-path:url(#clip-path-3);}.cls-9{fill:url(#linear-gradient-2);}.cls-10{fill:url(#linear-gradient-3);}.cls-11{fill:#f5f5f6;}.cls-12{fill:#b4b0d5;}.cls-13{clip-path:url(#clip-path-4);}.cls-14{fill:url(#linear-gradient-4);}.cls-15{fill:#85f6f8;}.cls-16{clip-path:url(#clip-path-5);}.cls-17{fill:url(#linear-gradient-5);}.cls-18{fill:#8afafc;}.cls-19{fill:#76e5f2;}.cls-20{clip-path:url(#clip-path-6);}.cls-21{fill:url(#linear-gradient-6);}.cls-22{fill:#54c1e0;}.cls-23{clip-path:url(#clip-path-7);}.cls-24{fill:url(#linear-gradient-7);}.cls-25{clip-path:url(#clip-path-8);}.cls-26{fill:url(#linear-gradient-8);}.cls-27{clip-path:url(#clip-path-9);}.cls-28{fill:url(#linear-gradient-9);}.cls-29{clip-path:url(#clip-path-10);}.cls-30{fill:url(#linear-gradient-10);}.cls-32{clip-path:url(#clip-path-11);}.cls-33{fill:url(#linear-gradient-11);}.cls-34{fill:#d6f7fb;}.cls-35{clip-path:url(#clip-path-12);}.cls-36{fill:url(#linear-gradient-12);}.cls-37{fill:url(#linear-gradient-13);}.cls-38{fill:#7c75b6;}.cls-39{clip-path:url(#clip-path-13);}.cls-40{fill:url(#linear-gradient-14);}.cls-41{clip-path:url(#clip-path-14);}.cls-42{fill:url(#linear-gradient-15);}.cls-43{fill:#443997;}.cls-44{fill:#5bfcff;}.cls-45{fill:#a29ccb;}.cls-46{fill:url(#linear-gradient-16);}.cls-47{clip-path:url(#clip-path-15);}.cls-48{fill:url(#linear-gradient-17);}.cls-49{clip-path:url(#clip-path-16);}.cls-50{fill:url(#linear-gradient-18);}.cls-51{fill:url(#linear-gradient-19);}.cls-52{clip-path:url(#clip-path-17);}.cls-53{fill:url(#linear-gradient-20);}.cls-54{clip-path:url(#clip-path-18);}.cls-55{fill:url(#linear-gradient-21);}.cls-56{clip-path:url(#clip-path-19);}.cls-57{fill:url(#linear-gradient-22);}.cls-58{clip-path:url(#clip-path-20);}.cls-59{fill:url(#linear-gradient-23);}.cls-60{fill:url(#linear-gradient-24);}.cls-61{fill:#f2caaa;}.cls-62{fill:#e1e2e3;}.cls-63{fill:#302b2d;}.cls-64{fill:#adadad;}.cls-65{clip-path:url(#clip-path-21);}.cls-66{fill:url(#linear-gradient-25);}.cls-67{fill:#d6d6d6;}.cls-68{fill:#c7c7c7;}.cls-69{fill:#f5d4b3;}.cls-70{fill:#ebc4a5;}.cls-71{fill:#231f20;}.cls-72{fill:#b5b5b5;}.cls-73{fill:#d0d1d1;}.cls-74{fill:#756eaf;}.cls-75{clip-path:url(#clip-path-22);}.cls-76{fill:url(#linear-gradient-26);}.cls-77{fill:url(#linear-gradient-27);}</style><clipPath id="clip-path"><rect class="cls-1" width="1536" height="731"/></clipPath><linearGradient id="linear-gradient" x1="733.5" y1="904.86" x2="734.37" y2="905" gradientTransform="matrix(1920, 0, 0, -1080, -1408546, 977705.5)" gradientUnits="userSpaceOnUse"><stop offset="0" stop-color="#00d2ff"/><stop offset="1" stop-color="#3a7bd5" stop-opacity="0.77"/></linearGradient><clipPath id="clip-path-2"><rect class="cls-1" x="902" y="73.64" width="828.51" height="1338.4"/></clipPath><clipPath id="clip-path-3"><path class="cls-1" d="M1262.24,475.19c-42.9,0-85.71-8.6-118.42-25.7s-49-39.7-49-62.1v-30h0c-.28,22.7,16,45.4,49,62.7,32.71,17.2,75.61,25.7,118.42,25.7s85.72-8.6,118.43-25.7c32.15-16.9,48.55-38.9,49-61.1v28.1c.19,22.6-16.21,45.2-49,62.4s-75.53,25.7-118.43,25.7"/></clipPath><linearGradient id="linear-gradient-2" x1="-602.44" y1="376.42" x2="-601.9" y2="377.33" gradientTransform="matrix(451.9, 0, 0, -174.22, 273329.9, 66081.32)" gradientUnits="userSpaceOnUse"><stop offset="0" stop-color="#00d2ff"/><stop offset="1" stop-color="#3a52d5" stop-opacity="0.77"/></linearGradient><linearGradient id="linear-gradient-3" x1="-602.36" y1="669.52" x2="-601.83" y2="670.43" gradientTransform="matrix(451.92, 0, 0, -259.71, 273339.63, 174375.77)" xlink:href="#linear-gradient-2"/><clipPath id="clip-path-4"><polyline class="cls-1" points="1419.38 354.55 1399.08 343.85 1399.08 341.45 1419.38 351.75 1419.38 354.55"/></clipPath><linearGradient id="linear-gradient-4" x1="-1055.73" y1="397.14" x2="-1049.07" y2="397.14" gradientTransform="matrix(27.42, 0, 0, -19.43, 30194.93, 8064.44)" gradientUnits="userSpaceOnUse"><stop offset="0" stop-color="#b4afd4"/><stop offset="1" stop-color="#aeabcd"/></linearGradient><clipPath id="clip-path-5"><polyline class="cls-1" points="1399.04 365.37 1368.28 349.17 1368.46 349.17 1368.46 327.77 1399.04 343.87 1399.04 365.37"/></clipPath><linearGradient id="linear-gradient-5" x1="-997.9" y1="419.51" x2="-993.5" y2="419.51" gradientTransform="matrix(41.54, 0, 0, -55.61, 42698.63, 23675.34)" gradientUnits="userSpaceOnUse"><stop offset="0" stop-color="#53c1df"/><stop offset="1" stop-color="#50bcda"/></linearGradient><clipPath id="clip-path-6"><polyline class="cls-1" points="1399.01 343.8 1368.52 327.7 1368.52 325.8 1399.01 341.4 1399.01 343.8"/></clipPath><linearGradient id="linear-gradient-6" x1="-998.52" y1="420.84" x2="-994.08" y2="420.84" gradientTransform="matrix(41.18, 0, 0, -26.55, 42366.46, 11508.2)" gradientUnits="userSpaceOnUse"><stop offset="0" stop-color="#76e4f1"/><stop offset="1" stop-color="#74e3ef"/></linearGradient><clipPath id="clip-path-7"><path class="cls-1" d="M1367.53,348.83l-123-64.8,20.3-10.8,50.69,26.7v2.8l-.47-.3v2.4l.47.3,1.29.7h.09v1.1l2.69,1.4v-1.1l.93.5v1.1l2.69,1.4v-1.1a5.08,5.08,0,0,0,2.13.5,2.6,2.6,0,0,0,2.79-2.39,2.9,2.9,0,0,0,0-.51v-.2l39.47,20.8-.09,21.5"/></clipPath><linearGradient id="linear-gradient-7" x1="-808.48" y1="500.6" x2="-807.37" y2="500.6" gradientTransform="matrix(165.89, 0, 0, -111.78, 135362.51, 56267.94)" xlink:href="#linear-gradient-5"/><clipPath id="clip-path-8"><path class="cls-1" d="M1367.51,327.25,1328,306.45a5.36,5.36,0,0,0-.19-1.2l39.66,20.2v1.8Zm-52-27.4h0l-50.69-26.7,50.69,25.8v.9Z"/></clipPath><linearGradient id="linear-gradient-8" x1="-837.38" y1="500.33" x2="-836.06" y2="500.33" gradientTransform="matrix(138.47, 0, 0, -79.95, 117195.17, 40301.32)" xlink:href="#linear-gradient-6"/><clipPath id="clip-path-9"><path class="cls-1" d="M1323.88,306.81a3.63,3.63,0,0,1-1.48-.4l-4.35-2.3v-2.8l7.22,3.8v.2a1.28,1.28,0,0,1-1,1.49,1.45,1.45,0,0,1-.36,0"/></clipPath><linearGradient id="linear-gradient-9" x1="-1016.58" y1="448.91" x2="-997.9" y2="448.91" gradientTransform="matrix(9.78, 0, 0, -8.18, 11189.99, 3976.13)" xlink:href="#linear-gradient-5"/><clipPath id="clip-path-10"><path class="cls-1" d="M1325.37,305.07l-7.23-3.8v-1l6.86,3.5a3.52,3.52,0,0,1,.37,1.3"/></clipPath><linearGradient id="linear-gradient-10" x1="-1016.69" y1="448.87" x2="-998" y2="448.87" gradientTransform="matrix(9.78, 0, 0, -7.08, 11184.31, 3480.68)" xlink:href="#linear-gradient-6"/><clipPath id="clip-path-11"><path class="cls-1" d="M1323,310.25l-2.69-1.39v-1.11l-.92-.5v1.11l-2.69-1.4v-1.1h-.09l-1.3-.7-.46-.2v-2.4l.46.3v-2.8l2.69,1.4v2.8l4.35,2.3a3.63,3.63,0,0,0,1.48.4,1.44,1.44,0,0,0,1.49-1.39v-.31l2.68,1.4v.2a2.6,2.6,0,0,1-2.29,2.88,2.68,2.68,0,0,1-.49,0,5.08,5.08,0,0,1-2.13-.5l-.09,1"/></clipPath><linearGradient id="linear-gradient-11" x1="-961.16" y1="455.99" x2="-950.76" y2="455.99" gradientTransform="matrix(17.57, 0, 0, -15.25, 18135.19, 7259.07)" gradientUnits="userSpaceOnUse"><stop offset="0" stop-color="#caebf6"/><stop offset="1" stop-color="#c9ebf4"/></linearGradient><clipPath id="clip-path-12"><path class="cls-1" d="M1328,306.48h0l-2.69-1.4a3.29,3.29,0,0,0-.37-1.3l2.78,1.4a2.36,2.36,0,0,1,.28,1.3Zm-9.82-5.2h0l-2.69-1.4V299l2.69,1.3Z"/></clipPath><linearGradient id="linear-gradient-12" x1="-964.27" y1="455.36" x2="-953.48" y2="455.36" gradientTransform="matrix(16.93, 0, 0, -11.14, 17568.79, 5375.49)" gradientUnits="userSpaceOnUse"><stop offset="0" stop-color="#d5f7fa"/><stop offset="1" stop-color="#d4f7f9"/></linearGradient><linearGradient id="linear-gradient-13" x1="-606.4" y1="669.68" x2="-608.26" y2="670.4" gradientTransform="matrix(144.68, 0, 0, -241.89, 88933.43, 162257.67)" xlink:href="#linear-gradient"/><clipPath id="clip-path-13"><path class="cls-1" d="M1123.33,343l-13-5.6,11.21-5.9v7.9a3.7,3.7,0,0,0,1.76,3.6"/></clipPath><linearGradient id="linear-gradient-14" x1="-676.91" y1="411.04" x2="-674.1" y2="406.15" gradientTransform="matrix(17.53, 0, 0, -16.97, 12980.81, 7307.72)" gradientUnits="userSpaceOnUse"><stop offset="0" stop-color="#7b75b6"/><stop offset="1" stop-color="#746ca8"/></linearGradient><clipPath id="clip-path-14"><path class="cls-1" d="M1125.47,342.73a5.08,5.08,0,0,1-2.13-.5,3.87,3.87,0,0,1-1.76-3.6V219.53c0-4,3.52-9,7.87-11.3l80.25-42.3a7.62,7.62,0,0,1,3.89-1.1,5.68,5.68,0,0,1,1.3.2c1.67.5,2.69,1.8,2.69,4,0-2.7-1.58-4.1-3.9-4.1a8.44,8.44,0,0,0-3.89,1.1l-80.24,42.3c-4.36,2.3-7.88,7.3-7.88,11.3v2.8l96-50.6V288a12,12,0,0,1-3,7.2,15.87,15.87,0,0,1-4.91,4.2l-80.24,42.3a12,12,0,0,1-4.08,1"/></clipPath><linearGradient id="linear-gradient-15" x1="-643.89" y1="660.78" x2="-643.27" y2="661.49" gradientTransform="matrix(129.47, 0, 0, -262.92, 84493.46, 174081.56)" gradientUnits="userSpaceOnUse"><stop offset="0" stop-color="#443996"/><stop offset="1" stop-color="#5bfbff"/></linearGradient><linearGradient id="linear-gradient-16" x1="-614.76" y1="668.75" x2="-614.84" y2="667.85" gradientTransform="matrix(71.29, 0, 0, -41.16, 45211.08, 27813.85)" gradientUnits="userSpaceOnUse"><stop offset="0" stop-color="#00d2ff"/><stop offset="1" stop-color="#3a7bd5"/></linearGradient><clipPath id="clip-path-15"><polyline class="cls-1" points="1381.64 325.08 1381.64 396.79 1408.15 382.88 1408.15 311.19 1381.64 325.08"/></clipPath><linearGradient id="linear-gradient-17" x1="-1017.37" y1="444.78" x2="-1016.6" y2="444.81" gradientTransform="matrix(35.65, 0, 0, -126.58, 37650.28, 56656.45)" xlink:href="#linear-gradient-16"/><clipPath id="clip-path-16"><polyline class="cls-1" points="1354.95 311.19 1381.36 325.08 1381.36 396.79 1354.95 382.88 1354.95 311.19"/></clipPath><linearGradient id="linear-gradient-18" x1="-981.11" y1="444.79" x2="-980.34" y2="444.82" gradientTransform="matrix(35.64, 0, 0, -126.58, 36324.36, 56656.45)" xlink:href="#linear-gradient-16"/><linearGradient id="linear-gradient-19" x1="-614.6" y1="669.18" x2="-614.68" y2="668.28" gradientTransform="matrix(71.29, 0, 0, -41.16, 45164.37, 27869.46)" xlink:href="#linear-gradient-16"/><clipPath id="clip-path-17"><polyline class="cls-1" points="1372.57 401.02 1372.57 348.22 1346.16 362.22 1346.16 414.92 1372.57 401.02"/></clipPath><linearGradient id="linear-gradient-20" x1="-969.12" y1="389.92" x2="-968.36" y2="389.95" gradientTransform="matrix(35.65, 0, 0, -98.51, 35895.04, 38794.33)" xlink:href="#linear-gradient-16"/><clipPath id="clip-path-18"><polyline class="cls-1" points="1319.64 348.22 1319.64 401.02 1346.05 414.92 1346.05 362.22 1319.64 348.22"/></clipPath><linearGradient id="linear-gradient-21" x1="-933.04" y1="389.93" x2="-932.28" y2="389.96" gradientTransform="matrix(35.64, 0, 0, -98.51, 34578.34, 38794.33)" xlink:href="#linear-gradient-16"/><clipPath id="clip-path-19"><polyline class="cls-1" points="1337.26 385.56 1337.26 419.36 1310.85 433.26 1310.85 399.46 1337.26 385.56"/></clipPath><linearGradient id="linear-gradient-22" x1="-921.08" y1="334.76" x2="-920.31" y2="334.79" gradientTransform="matrix(35.64, 0, 0, -70.44, 34140.73, 23990.88)" xlink:href="#linear-gradient-16"/><clipPath id="clip-path-20"><polyline class="cls-1" points="1284.23 385.56 1310.64 399.46 1310.64 433.26 1284.23 419.36 1284.23 385.56"/></clipPath><linearGradient id="linear-gradient-23" x1="-884.99" y1="334.76" x2="-884.22" y2="334.79" gradientTransform="matrix(35.65, 0, 0, -70.44, 32834.07, 23990.88)" xlink:href="#linear-gradient-16"/><linearGradient id="linear-gradient-24" x1="-614.41" y1="669.61" x2="-614.49" y2="668.71" gradientTransform="matrix(71.29, 0, 0, -41.16, 45115.41, 27924.36)" xlink:href="#linear-gradient-16"/><clipPath id="clip-path-21"><polyline class="cls-1" points="1180.04 251.58 1179.85 251.78 1180.04 251.58"/></clipPath><linearGradient id="linear-gradient-25" x1="-5007.75" y1="183.32" x2="-5007.79" y2="183.33" gradientTransform="matrix(0.23, 0, 0, -0.37, 2349.61, 333.95)" gradientUnits="userSpaceOnUse"><stop offset="0" stop-color="#5a6cdb"/><stop offset="1" stop-color="#7a89e9"/></linearGradient><clipPath id="clip-path-22"><path class="cls-1" d="M1200.84,401.76c0-7.9-7-18-15.66-22.6a16,16,0,0,0-7.78-2.1,43,43,0,0,0-18.9-21.1c-8.34-4.4-15.48-3.7-18.81,1a31,31,0,0,0-7.42-5.7c-5.46-2.9-10.28-2.9-13.06-.5h0l-10.2,7.4,13.26,9.5a32.68,32.68,0,0,0,10.37,10.1v.1l14.74,7.8,41.33,29.5,9.26-6.6a8.7,8.7,0,0,0,2.87-6.8"/></clipPath><linearGradient id="linear-gradient-26" x1="-626.8" y1="388.99" x2="-626.86" y2="388.91" gradientTransform="matrix(123.96, 0, 0, -97.6, 78870.33, 38329.56)" gradientUnits="userSpaceOnUse"><stop offset="0" stop-color="#3d49a3"/><stop offset="1" stop-color="#2b357b"/></linearGradient><linearGradient id="linear-gradient-27" x1="-608.36" y1="670.03" x2="-608.61" y2="669.47" gradientTransform="matrix(113.76, 0, 0, -90.13, 70371.58, 60749.09)" xlink:href="#linear-gradient-26"/></defs><title>Cover_Light - Copy_5-02</title><g class="cls-2"><g id="az"><rect class="cls-3" width="1536" height="731"/><path class="cls-4" d="M2.4,0H1533.6a2.25,2.25,0,0,1,2.4,2V729a2.25,2.25,0,0,1-2.4,2H2.4A2.25,2.25,0,0,1,0,729V2A2.25,2.25,0,0,1,2.4,0Z"/><path class="cls-5" d="M1536,695.7v-125s-89.7,63.5-252.9,63.5S1014,570.7,818.2,570.7s-387.9,125-533,125-140-55-180.5-55-49.3,89.2-49.3,89.2H1536Z"/><g class="cls-6"><path class="cls-7" d="M1336.51,628.93a147.26,147.26,0,0,0,29-9.9,135.33,135.33,0,0,0,47.62-36.4,120.27,120.27,0,0,0,16.22-25.4l103.32-216.5a111.7,111.7,0,0,0,10.94-42.8,100,100,0,0,0-1.12-21.1,102.81,102.81,0,0,0-5.19-20.2,118.36,118.36,0,0,0,15.85-34.7,106.61,106.61,0,0,0,3.15-38.3,101.41,101.41,0,0,0-5-23.3c-7.23-21.7-21.69-40.9-41.24-54.9a126.64,126.64,0,0,0-20.66-12,134,134,0,0,0-23.17-8.1,131.5,131.5,0,0,0-25.11-3.9,145.67,145.67,0,0,0-26.41.8l-152,18.2a141.37,141.37,0,0,0-15.94,2.8c-30.2,6.9-56.89,23.1-75.61,45.8-18,21.8-27.8,48.4-27.61,74.9l-8.62,1.6c-1.85.4-3.71.7-5.47,1.2a139.51,139.51,0,0,0-67,36,125.06,125.06,0,0,0-27.15,39.2,114.87,114.87,0,0,0-7.23,22.6,109.84,109.84,0,0,0-2.32,23.3,104.86,104.86,0,0,0,2.87,23.4,127.32,127.32,0,0,0-29.46,23.9,119.34,119.34,0,0,0-29.84,62.4,114,114,0,0,0,0,33.7,106.49,106.49,0,0,0,27.89,57.3,114.71,114.71,0,0,0,28,21.3,141.1,141.1,0,0,0,37.53,13.7l211.09,46a145.29,145.29,0,0,0,31.6,3.2A160.06,160.06,0,0,0,1336.51,628.93Zm-192.92-405.1,194.22-37.1,21.5,115.4-98.41,81.3-85.07-84.8c-20.85-20.8-32.06-46.7-32.24-74.8Z"/></g><path class="cls-1" d="M1262.24,475.19c-42.9,0-85.71-8.6-118.42-25.7s-49-39.7-49-62.1v-30h0c-.28,22.7,16,45.4,49,62.7,32.71,17.2,75.61,25.7,118.42,25.7s85.72-8.6,118.43-25.7c32.15-16.9,48.55-38.9,49-61.1v28.1c.19,22.6-16.21,45.2-49,62.4s-75.53,25.7-118.43,25.7"/><g class="cls-8"><path class="cls-9" d="M1262.24,475.19c-42.9,0-85.71-8.6-118.42-25.7s-49-39.7-49-62.1v-30h0c-.28,22.7,16,45.4,49,62.7,32.71,17.2,75.61,25.7,118.42,25.7s85.72-8.6,118.43-25.7c32.15-16.9,48.55-38.9,49-61.1v28.1c.19,22.6-16.21,45.2-49,62.4s-75.53,25.7-118.43,25.7"/></g><path class="cls-10" d="M1380.66,295.71c65.43,34.3,65.43,90,0,124.3s-171.42,34.3-236.84,0-65.42-90,0-124.3,171.42-34.3,236.84,0"/><path class="cls-1" d="M1416.14,381.33,1245,284.23,1368,349v.1h.28l30.77,16.2V343.8l20.29,10.7v-2.8l8.34,4.2-11.49,25.4"/><path class="cls-11" d="M1419.4,326.31h0a90.27,90.27,0,0,0-20.3-20.2v-8.9c0-10.2-5.37-17.9-9.91-21.3,1.3-1.6,2.59-3.3,3.61-4.7h0c1.58-2.1,3.25-4.3,4.91-6.3a7.15,7.15,0,0,1,2.32-1.8,6.25,6.25,0,0,1,2.69-.6,10.42,10.42,0,0,1,5.65,1.9,21.22,21.22,0,0,1,5.38,5.1,24.62,24.62,0,0,1,4,7.6,29.11,29.11,0,0,1,1.58,9.3l.09,39.9Zm-47.72-36.1c-1-.5-2.14-.9-3.15-1.4v-16.5a23,23,0,0,0,6.11,8.4,83,83,0,0,0-2.59,8.3h0A8.32,8.32,0,0,0,1371.68,290.21Zm-3.71-1.6h0a207,207,0,0,0-20.76-7.6c-2.59-9.4-4.35-20-5.83-28.5v-.1c-.75-4.6-1.39-8.7-2-11.4a77.62,77.62,0,0,0-2.6-8.7,17.75,17.75,0,0,1,3.52-7,6.69,6.69,0,0,1,4.91-2.4c2.69,0,5.38,1.8,7.79,5.3a31.22,31.22,0,0,1,3.61,6.8,62.17,62.17,0,0,1,3.06,9.8c.37,1.8.74,3.3,1,4.7v.1c1.3,6.1,2.13,9.8,7.23,21.5l.09,17.5Zm-62.27-16.7c-7.88-1.1-16-1.9-24.09-2.4-2.6-5.2-4.27-11.4-5.84-17.4-.83-3.2-1.76-6.5-2.78-9.7a20.17,20.17,0,0,0-3.34-6.1c1.67-5.7,4.17-12.9,7-15.2a6.47,6.47,0,0,1,4.26-1.6c3.15,0,5.93,2.4,7.78,4.4a23.94,23.94,0,0,1,4.64,7.7c.55,1.7,1,3.2,1.48,4.8,3.33,10.7,5.74,18.4,14.92,24.2a97.93,97.93,0,0,1-4,11.3Z"/><path class="cls-12" d="M1419.4,351.61h0l-20.3-10.3v-35a90.51,90.51,0,0,1,20.3,20.3Zm-56.53-47.7c-1.94,0-4.17-1.1-6.21-3.1a25.29,25.29,0,0,1-5.37-8.1,86.43,86.43,0,0,1-4-11.5,215.42,215.42,0,0,1,20.75,7.6v11.7a8.4,8.4,0,0,1-1.85,2.3,5.84,5.84,0,0,1-3.32,1.1Zm5.66-4.4h0V289c1,.5,2.13.9,3.15,1.4a66.58,66.58,0,0,1-3.15,9.1Zm-72.93-17.4a6.76,6.76,0,0,1-3.43-.9,22.22,22.22,0,0,1-6.21-4.9,29,29,0,0,1-4.35-6.5c8.06.5,16.21,1.3,24.09,2.4a26.63,26.63,0,0,1-4.54,7.2A8,8,0,0,1,1295.6,282.11Z"/><path class="cls-1" d="M1419.37,354.55l-20.29-10.7v-2.4l20.29,10.3v2.8"/><g class="cls-13"><path class="cls-14" d="M1419.37,354.55l-20.29-10.7v-2.4l20.29,10.3v2.8"/></g><path class="cls-15" d="M1379.92,283.21a8.43,8.43,0,0,1-5.37-2.3,19.73,19.73,0,0,1,2.78-5.2,6.44,6.44,0,0,1,5-2.4,11.26,11.26,0,0,1,6.67,2.6,38.25,38.25,0,0,1-5.83,6.1,5.9,5.9,0,0,1-3.25,1.2"/><path class="cls-1" d="M1399,365.37l-30.76-16.2h.28v-21.4l30.48,16.1v21.5"/><g class="cls-16"><path class="cls-17" d="M1399,365.37l-30.76-16.2h.28v-21.4l30.48,16.1v21.5"/></g><path class="cls-18" d="M1399,306.21a137.61,137.61,0,0,0-18.16-11.3c-3-1.6-6.12-3.1-9.27-4.5.93-3.2,1.86-6.6,3-9.4a8.43,8.43,0,0,0,5.37,2.3,5.17,5.17,0,0,0,3.25-1.1,35.08,35.08,0,0,0,5.83-6.1c5.29,3.9,9.92,11.9,9.92,21.3l.09,8.8"/><path class="cls-19" d="M1399,341.31l-30.48-15.6v-26.2a66.64,66.64,0,0,0,3.15-9c3.15,1.4,6.3,3,9.26,4.5a137.61,137.61,0,0,1,18.16,11.3l-.09,35"/><path class="cls-1" d="M1399,343.8l-30.49-16.1v-1.9L1399,341.3v2.5"/><g class="cls-20"><path class="cls-21" d="M1399,343.8l-30.49-16.1v-1.9L1399,341.3v2.5"/></g><path class="cls-15" d="M1244.36,269.41h0v-1.9a121.64,121.64,0,0,1,3.8-18.4c1.76-6.4,4.44-14.7,7.59-17.2a6.5,6.5,0,0,1,4.27-1.6,8.51,8.51,0,0,1,4.91,1.8,21.83,21.83,0,0,1,4.17,4.2,139.21,139.21,0,0,0-4.36,20.4v12.2h-2.31C1256.4,268.91,1250.29,269,1244.36,269.41Zm73-5.7a13.18,13.18,0,0,1-5.56-1.5,31.21,31.21,0,0,1-2.78-1.6,244.41,244.41,0,0,0,5.46-25.8c.37-1.9.56-3.5.74-4.4a20.05,20.05,0,0,1,3.53-8.4,7,7,0,0,1,5.37-2.9c2,0,4.17,1.1,6.12,3.2a31.66,31.66,0,0,1,5.74,10,12.34,12.34,0,0,0-.46,2,88.08,88.08,0,0,1-5.1,17.2c-3.61,8.1-8.06,12.2-13.06,12.2Z"/><path class="cls-22" d="M1244.17,283.91v-14.3c6-.3,12-.5,18.07-.5h2.32V273l-20.39,10.9"/><path class="cls-1" d="M1367.53,348.83l-123-64.8,20.3-10.8,50.69,26.7v2.8l-.47-.3v2.4l.47.3,1.29.7h.09v1.1l2.69,1.4v-1.1l.93.5v1.1l2.69,1.4v-1.1a5.08,5.08,0,0,0,2.13.5,2.6,2.6,0,0,0,2.79-2.39,2.9,2.9,0,0,0,0-.51v-.2l39.47,20.8-.09,21.5"/><g class="cls-23"><path class="cls-24" d="M1367.53,348.83l-123-64.8,20.3-10.8,50.69,26.7v2.8l-.47-.3v2.4l.47.3,1.29.7h.09v1.1l2.69,1.4v-1.1l.93.5v1.1l2.69,1.4v-1.1a5.08,5.08,0,0,0,2.13.5,2.6,2.6,0,0,0,2.79-2.39,2.9,2.9,0,0,0,0-.51v-.2l39.47,20.8-.09,21.5"/></g><path class="cls-18" d="M1346.75,281h0a264.16,264.16,0,0,0-41.61-9.1,69.45,69.45,0,0,0,4-11.2c.83.5,1.76,1.1,2.78,1.6a11.89,11.89,0,0,0,5.56,1.5c8,0,14.27-10.2,18.25-29.5.19-.7.28-1.4.47-2a65.85,65.85,0,0,1,2.59,8.7c.65,2.7,1.3,6.8,2.13,11.5,1.48,8.5,3.24,19.1,5.84,28.5Zm-65.7-11.5h0c-5.37-.3-10.84-.5-16.31-.5V256.8a129.05,129.05,0,0,1,4.36-20.4,25.62,25.62,0,0,1,3.33,6.1c1,3.1,2,6.5,2.78,9.7,1.58,5.9,3.25,12.1,5.84,17.3Z"/><path class="cls-19" d="M1367.51,325.41l-39.66-20.2a9.35,9.35,0,0,0-2.14-3.9,2.59,2.59,0,0,0,1.39-2.5c0-2.2-1.66-5-4-6.7v-1.2l-2.69-1.4v1.1l-.92-.5V289l-2.69-1.4v1.1h-.09l-1.3-.7-.46-.3v2.4l.46.3v8.5l-50.69-25.8v-3.9c5.47,0,10.84.2,16.31.5,2.41,4.8,5.65,8.8,10.56,11.4a6.76,6.76,0,0,0,3.43.9c4.08,0,7.42-4.1,10.1-10a266.68,266.68,0,0,1,41.61,9.1,73.15,73.15,0,0,0,4,11.5c3,6.7,7.6,11.1,11.59,11.1a5.14,5.14,0,0,0,3.24-1.1,7.12,7.12,0,0,0,1.85-2.3l.1,25.1"/><path class="cls-1" d="M1367.51,327.25,1328,306.45a5.36,5.36,0,0,0-.19-1.2l39.66,20.2v1.8Zm-52-27.4h0l-50.69-26.7,50.69,25.8v.9Z"/><g class="cls-25"><path class="cls-26" d="M1367.51,327.25,1328,306.45a5.36,5.36,0,0,0-.19-1.2l39.66,20.2v1.8Zm-52-27.4h0l-50.69-26.7,50.69,25.8v.9Z"/></g><path class="cls-1" d="M1323.88,306.81a3.63,3.63,0,0,1-1.48-.4l-4.35-2.3v-2.8l7.22,3.8v.2a1.28,1.28,0,0,1-1,1.49,1.45,1.45,0,0,1-.36,0"/><g class="cls-27"><path class="cls-28" d="M1323.88,306.81a3.63,3.63,0,0,1-1.48-.4l-4.35-2.3v-2.8l7.22,3.8v.2a1.28,1.28,0,0,1-1,1.49,1.45,1.45,0,0,1-.36,0"/></g><path class="cls-19" d="M1325,303.81l-6.85-3.5v-1.5l3.8,2,.55.3a5.7,5.7,0,0,1,2.5,2.7"/><path class="cls-1" d="M1325.37,305.07l-7.23-3.8v-1l6.86,3.5a3.52,3.52,0,0,1,.37,1.3"/><g class="cls-29"><path class="cls-30" d="M1325.37,305.07l-7.23-3.8v-1l6.86,3.5a3.52,3.52,0,0,1,.37,1.3"/></g><path class="cls-19" d="M1323.21,298.71a1.75,1.75,0,0,1-1.2-.4l-3.8-2v-4.6l3.8,2a4.88,4.88,0,0,1,2.5,3.6c-.09.9-.56,1.4-1.3,1.4"/><path class="cls-31" d="M1243.89,283.31h.56V171h-.56Z"/><path class="cls-31" d="M1274.84,299.61h.56V187.21h-.56Z"/><path class="cls-31" d="M1305.79,315.81h.56V203.51h-.56Z"/><path class="cls-31" d="M1336.74,332.51h.56V220.11h-.56Z"/><path class="cls-31" d="M1367.69,348.81h.56V236.51h-.56Z"/><path class="cls-31" d="M1398.83,365.21h.55V252.91h-.55Z"/><path class="cls-31" d="M1244.17,271.41h-.28a.62.62,0,0,1-.53-.68.57.57,0,0,1,.07-.22l18.62-51.5a.91.91,0,0,1,1-.5.67.67,0,0,1,.5.81l0,.09-18.63,51.5a.72.72,0,0,1-.74.5"/><path class="cls-31" d="M1290,276.21a.94.94,0,0,1-.74-.4l-27.15-56.4a.75.75,0,0,1,.36-1h0a.72.72,0,0,1,1,.34l0,.06h0l27.15,56.4a.76.76,0,0,1-.37,1H1290"/><path class="cls-31" d="M1290.22,276.21l-.37-.1a.76.76,0,0,1-.37-1h0l35.59-61.3a.79.79,0,0,1,1.07-.32l0,0a.76.76,0,0,1,.37,1h0L1291,275.81a1.12,1.12,0,0,1-.75.4"/><path class="cls-31" d="M1358.33,296.11a.72.72,0,0,1-.74-.5l-32.34-81.2a.66.66,0,0,1,.35-.86l.11,0a1,1,0,0,1,1,.4l32.34,81.2a.66.66,0,0,1-.35.86l-.11,0h0l-.28.1"/><path class="cls-31" d="M1358.7,296.41a.76.76,0,0,1-.83-.68v0a.54.54,0,0,1,.28-.5l29.93-26.9a.8.8,0,0,1,1.11,0,.7.7,0,0,1,0,1h0l-29.93,26.8a.63.63,0,0,1-.56.3"/><path class="cls-31" d="M1388.63,269.31a1.18,1.18,0,0,1-.55-.2.7.7,0,0,1,0-1h0l10.38-9.6a.8.8,0,0,1,1.11,0,.63.63,0,0,1,.12.88.68.68,0,0,1-.12.12h0l-10.29,9.6c-.18.2-.37.2-.65.2"/><path class="cls-31" d="M1293,277.21c0,1.5-1.29,2-3,1.1a5.59,5.59,0,0,1-3-4.2c0-1.5,1.3-2,3-1.1a5.33,5.33,0,0,1,3,4.2"/><path class="cls-31" d="M1265.85,221.61c0,1.5-1.29,2-3,1.1a5.59,5.59,0,0,1-3-4.2c0-1.5,1.3-2,3-1.1a5.23,5.23,0,0,1,3,4.2"/><path class="cls-31" d="M1328.77,216.41c0,1.5-1.29,2-3,1.1a5.59,5.59,0,0,1-3-4.2c0-1.5,1.3-2,3-1.1a5.55,5.55,0,0,1,3,4.2"/><path class="cls-31" d="M1391.6,270.61c0,1.5-1.3,2-3,1.1a5.56,5.56,0,0,1-3-4.2c0-1.5,1.3-2,3-1.1a5.43,5.43,0,0,1,3,4.2"/><path class="cls-31" d="M1361.3,295.81c0,1.5-1.3,2-3,1.1a5.55,5.55,0,0,1-3-4.2c0-1.5,1.29-2,3-1.1a5.28,5.28,0,0,1,3,4.2"/><path class="cls-15" d="M1230,196.11a4.9,4.9,0,0,1-4.63-2.9l-1.39.8v-2.4l.93-.5v-1.8l-.93.5v-2.4l1.39-.8a19,19,0,0,1,8.9-11.1,11.06,11.06,0,0,1,3.61-1.2l-1.11,2.8a6.67,6.67,0,0,0-2.5.8,14.07,14.07,0,0,0-6.12,7.2l6.58-3.5V184l-7.32,3.8c0,.3-.09.6-.09.9a3.4,3.4,0,0,0,.09.9l7.32-3.8v2.4l-6.58,3.5a3.46,3.46,0,0,0,3.06,1.6,6.43,6.43,0,0,0,3.06-.8,11.68,11.68,0,0,0,2.5-1.8l1.11,1.6a18.8,18.8,0,0,1-3.61,2.6,9.81,9.81,0,0,1-4.27,1.2"/><path class="cls-15" d="M1376.68,253.61h0l-2.69-1.4v-2a9.21,9.21,0,0,1-1.85-1.5c-2-1.8-3.43-3.7-3.71-5.2h0l2.6,1a8.11,8.11,0,0,0,2.13,2.7c.28.2.55.5.83.7v-5.5c-2.31-1.7-4.63-3.6-5.37-6.3-.37-1.6-.09-2.7.83-3.2a3.77,3.77,0,0,1,1.48-.3,8.59,8.59,0,0,1,3.16.7v-1.1l2.68,1.4v1.2a16.91,16.91,0,0,1,3.15,2.7,9.3,9.3,0,0,1,1.95,3.7l-2.6-.9c-.18-.7-.46-1.6-2.5-3v4.6a14.45,14.45,0,0,1,2.23,1.9,10,10,0,0,1,3.15,5.6c.18,1.6-.56,2.7-2,2.9-.28,0-.46.1-.74.1a6.25,6.25,0,0,1-2.69-.6l-.09,1.8Zm0-9.2h0v4.9a6.57,6.57,0,0,0,1.39.2h.46a1,1,0,0,0,1-1,.77.77,0,0,0,0-.15v-.1a4.91,4.91,0,0,0-1.67-2.9Zm-4.45-9.1a1,1,0,0,0-.74.2c-.37.2-.46.6-.28,1.3.28,1,1.21,1.9,2.88,3.1v-4.2a10.82,10.82,0,0,0-1.86-.4Z"/><path class="cls-1" d="M1323,310.25l-2.69-1.39v-1.11l-.92-.5v1.11l-2.69-1.4v-1.1h-.09l-1.3-.7-.46-.2v-2.4l.46.3v-2.8l2.69,1.4v2.8l4.35,2.3a3.63,3.63,0,0,0,1.48.4,1.44,1.44,0,0,0,1.49-1.39v-.31l2.68,1.4v.2a2.6,2.6,0,0,1-2.29,2.88,2.68,2.68,0,0,1-.49,0,5.08,5.08,0,0,1-2.13-.5l-.09,1"/><g class="cls-32"><path class="cls-33" d="M1323,310.25l-2.69-1.39v-1.11l-.92-.5v1.11l-2.69-1.4v-1.1h-.09l-1.3-.7-.46-.2v-2.4l.46.3v-2.8l2.69,1.4v2.8l4.35,2.3a3.63,3.63,0,0,0,1.48.4,1.44,1.44,0,0,0,1.49-1.39v-.31l2.68,1.4v.2a2.6,2.6,0,0,1-2.29,2.88,2.68,2.68,0,0,1-.49,0,5.08,5.08,0,0,1-2.13-.5l-.09,1"/></g><path class="cls-34" d="M1327.85,305.21h0l-2.78-1.4a5.86,5.86,0,0,0-2.6-2.7l-.55-.3-3.8-2v1.5l-2.69-1.4v-8.5l-.46-.2v-2.5l.46.3,1.3.7h.09v-1.1l2.69,1.4v1.1l.92.5v-1.1l2.69,1.4v1.2a11,11,0,0,1,2.87,3.1,7.08,7.08,0,0,1,1.11,3.6,2.59,2.59,0,0,1-1.39,2.5,10.57,10.57,0,0,1,2.14,3.9Zm-9.73-13.4v4.6l3.8,2a5.64,5.64,0,0,0,1.2.4,1.24,1.24,0,0,0,1.3-1.18v-.12a4.88,4.88,0,0,0-2.5-3.6Z"/><path class="cls-1" d="M1328,306.48h0l-2.69-1.4a3.29,3.29,0,0,0-.37-1.3l2.78,1.4a2.36,2.36,0,0,1,.28,1.3Zm-9.82-5.2h0l-2.69-1.4V299l2.69,1.3Z"/><g class="cls-35"><path class="cls-36" d="M1328,306.48h0l-2.69-1.4a3.29,3.29,0,0,0-.37-1.3l2.78,1.4a2.36,2.36,0,0,1,.28,1.3Zm-9.82-5.2h0l-2.69-1.4V299l2.69,1.3Z"/></g><path class="cls-1" d="M1214.88,402.43l-104.61-64.9,13,5.6a4.06,4.06,0,0,0,2.13.5,8.44,8.44,0,0,0,3.89-1.1l80.25-42.3a16.1,16.1,0,0,0,4.91-4.2l85.71,45-85.25,61.4"/><path class="cls-37" d="M1107.58,322.61v-109c0-4,3.53-9,7.88-11.3l80.25-42.3a8.85,8.85,0,0,1,3.89-1.1,3.93,3.93,0,0,1,1.85.4h0l13.35,5.7a5.18,5.18,0,0,0-1.3-.2,8.44,8.44,0,0,0-3.89,1.1l-80.25,42.3c-4.35,2.3-7.88,7.3-7.88,11.3v89.2a86.21,86.21,0,0,0-13.9,13.9"/><path class="cls-38" d="M1110.27,337.41h0a3.33,3.33,0,0,1-1-.4l-.18-.1h0a4,4,0,0,1-1.58-3.4v-10.2a86.21,86.21,0,0,1,13.9-13.9v22l-11.12,6"/><path class="cls-1" d="M1123.33,343l-13-5.6,11.21-5.9v7.9a3.7,3.7,0,0,0,1.76,3.6"/><g class="cls-39"><path class="cls-40" d="M1123.33,343l-13-5.6,11.21-5.9v7.9a3.7,3.7,0,0,0,1.76,3.6"/></g><path class="cls-1" d="M1125.47,342.73a5.08,5.08,0,0,1-2.13-.5,3.87,3.87,0,0,1-1.76-3.6V219.53c0-4,3.52-9,7.87-11.3l80.25-42.3a7.62,7.62,0,0,1,3.89-1.1,5.68,5.68,0,0,1,1.3.2c1.67.5,2.69,1.8,2.69,4,0-2.7-1.58-4.1-3.9-4.1a8.44,8.44,0,0,0-3.89,1.1l-80.24,42.3c-4.36,2.3-7.88,7.3-7.88,11.3v2.8l96-50.6V288a12,12,0,0,1-3,7.2,15.87,15.87,0,0,1-4.91,4.2l-80.24,42.3a12,12,0,0,1-4.08,1"/><g class="cls-41"><path class="cls-42" d="M1125.47,342.73a5.08,5.08,0,0,1-2.13-.5,3.87,3.87,0,0,1-1.76-3.6V219.53c0-4,3.52-9,7.87-11.3l80.25-42.3a7.62,7.62,0,0,1,3.89-1.1,5.68,5.68,0,0,1,1.3.2c1.67.5,2.69,1.8,2.69,4,0-2.7-1.58-4.1-3.9-4.1a8.44,8.44,0,0,0-3.89,1.1l-80.24,42.3c-4.36,2.3-7.88,7.3-7.88,11.3v2.8l96-50.6V288a12,12,0,0,1-3,7.2,15.87,15.87,0,0,1-4.91,4.2l-80.24,42.3a12,12,0,0,1-4.08,1"/></g><path class="cls-43" d="M1217.48,168.91v2.8l-96,50.6v-2.8c0-4,3.53-9,7.88-11.3l80.25-42.3c4.35-2.3,7.87-1,7.87,3"/><path class="cls-44" d="M1129.08,227.91l-.92.5v-3.2l-.37.2v-.1l.46-1.5.83-.4v4.5"/><path class="cls-44" d="M1130.1,227.31c-.09,0-.09,0-.18-.1s-.1-.1-.1-.2v-3.8a.85.85,0,0,1,.56-.7l2-1.1a.5.5,0,0,1,.37-.1.2.2,0,0,1,.18.2v3.8a.84.84,0,0,1-.55.7l-2,1.1C1130.38,227.21,1130.19,227.31,1130.1,227.31Zm2-5-1.3.7v3.4l1.3-.7Z"/><path class="cls-44" d="M1134.09,225.21c-.1,0-.1,0-.19-.1s-.09-.1,0-.2v-3.8a.85.85,0,0,1,.56-.7l2-1.1a.5.5,0,0,1,.37-.1.2.2,0,0,1,.18.2v3.8a.85.85,0,0,1-.55.7l-2,1.1A.75.75,0,0,1,1134.09,225.21Zm2-5.1-1.29.7v3.4l1.29-.7Z"/><path class="cls-44" d="M1138.07,223.11c-.09,0-.09,0-.18-.1s-.1-.1-.1-.2V219a.85.85,0,0,1,.56-.7l2-1.1a.55.55,0,0,1,.37-.1.2.2,0,0,1,.18.2v3.8a.84.84,0,0,1-.55.7l-2,1.1C1138.35,223,1138.26,223,1138.07,223.11Zm2-5.1-1.3.7v3.4l1.3-.7Z"/><path class="cls-44" d="M1150.4,216.41l-.93.5v-3.2l-.37.2v-.2l.46-1.5.84-.4v4.6"/><path class="cls-44" d="M1152.43,215.31l-.92.5v-3.2l-.37.2v-.1l.46-1.5.83-.4v4.5"/><path class="cls-44" d="M1154.47,214.21l-.92.5v-3.2l-.37.2v-.1l.46-1.5.83-.4v4.5"/><path class="cls-44" d="M1170.13,206.11c-.09,0-.09,0-.18-.1s-.1-.1-.1-.2V202a.85.85,0,0,1,.56-.7l2-1.1a.55.55,0,0,1,.37-.1.21.21,0,0,1,.19.2v3.8c0,.3-.19.5-.56.7l-2,1.1C1170.32,206,1170.23,206.11,1170.13,206.11Zm2-5-1.3.7v3.4l1.3-.7Z"/><path class="cls-44" d="M1174.12,204c-.1,0-.1,0-.19-.1s-.09-.1-.09-.2v-3.8a.85.85,0,0,1,.56-.7l2-1.1a.55.55,0,0,1,.37-.1.21.21,0,0,1,.19.2V202a.85.85,0,0,1-.56.7l-2,1.1C1174.4,203.91,1174.21,204,1174.12,204Zm2-5-1.3.7v3.4l1.3-.7Z"/><path class="cls-44" d="M1178.1,201.91c-.09,0-.09,0-.18-.1s-.1-.1-.1-.2v-3.8a.85.85,0,0,1,.56-.7l2-1.1a.55.55,0,0,1,.37-.1.2.2,0,0,1,.18.2v3.8a.84.84,0,0,1-.55.7l-2,1.1C1178.38,201.81,1178.29,201.91,1178.1,201.91Zm2.13-5.1-1.29.7v3.4l1.29-.7Z"/><path class="cls-44" d="M1182.18,199.81c-.09,0-.09,0-.19-.1s-.09-.1,0-.2v-3.8a.85.85,0,0,1,.56-.7l2-1.1a.5.5,0,0,1,.37-.1.2.2,0,0,1,.18.2v3.8a.84.84,0,0,1-.55.7l-2,1.1C1182.46,199.71,1182.27,199.71,1182.18,199.81Zm2-5.1-1.3.7v3.4l1.3-.7Z"/><path class="cls-44" d="M1191.17,195.11l-.93.5v-3.2l-.37.2v-.1l.46-1.5.84-.4v4.5"/><path class="cls-44" d="M1192.19,194.51c-.1,0-.1,0-.19-.1s-.09-.1,0-.2v-3.8a.85.85,0,0,1,.56-.7l2-1.1a.5.5,0,0,1,.37-.1.2.2,0,0,1,.18.2v3.8a.85.85,0,0,1-.55.7l-2,1.1A.49.49,0,0,1,1192.19,194.51Zm2.13-5.1-1.3.7v3.4l1.3-.7Z"/><path class="cls-44" d="M1197.19,191.91l-.93.5v-3.2l-.37.2v-.1l.47-1.5.83-.4v4.5"/><path class="cls-44" d="M1198.3,191.31c-.09,0-.09,0-.18-.1s-.1-.1-.1-.2v-3.8a.85.85,0,0,1,.56-.7l2-1.1a.5.5,0,0,1,.37-.1.2.2,0,0,1,.18.2v3.8a.84.84,0,0,1-.55.7l-2,1.1C1198.58,191.21,1198.39,191.31,1198.3,191.31Zm2-5-1.3.7v3.4l1.3-.7Z"/><path class="cls-44" d="M1203.31,188.71l-.93.5V186l-.37.2v-.1l.46-1.5.84-.4v4.5"/><path class="cls-44" d="M1204.33,188.11c-.1,0-.1,0-.19-.1s-.09-.1-.09-.2V184a.85.85,0,0,1,.55-.7l2-1.1a.55.55,0,0,1,.37-.1.21.21,0,0,1,.19.2v3.8a.85.85,0,0,1-.56.7l-2,1.1C1204.6,188.11,1204.42,188.11,1204.33,188.11Zm2-5h0l-1.29.7v3.4l1.29-.7Z"/><path class="cls-44" d="M1209.33,185.61l-.93.5v-3.2l-.37.2V183l.47-1.5.83-.4v4.5"/><path class="cls-44" d="M1129.08,235.21l-.92.5v-3.2l-.37.2v-.1l.46-1.5.83-.4v4.5"/><path class="cls-44" d="M1131,234.11l-.93.5v-3.2l-.37.2v-.1l.56-1.5.83-.4v4.5"/><path class="cls-44" d="M1133.07,233.11l-.93.5v-3.2l-.37.2v-.1l.46-1.5.84-.4v4.5"/><path class="cls-44" d="M1135.11,232l-.93.5v-3.2l-.37.2v-.1l.46-1.5.84-.4V232"/><path class="cls-44" d="M1136.12,231.41c-.09,0-.09,0-.18-.1s-.09-.1,0-.2v-3.8a.85.85,0,0,1,.56-.7l2-1.1a.55.55,0,0,1,.37-.1.21.21,0,0,1,.19.2v3.8a.85.85,0,0,1-.56.7l-2,1.1C1136.4,231.31,1136.22,231.31,1136.12,231.41Zm2-5.1-1.29.7v3.4l1.29-.7Z"/><path class="cls-44" d="M1141.13,228.81l-.93.5v-3.2l-.37.2v-.1l.46-1.5.84-.4v4.5"/><path class="cls-44" d="M1148.45,224.91l-.93.5v-3.2l-.37.2v-.1l.47-1.5.83-.4v4.5"/><path class="cls-44" d="M1150.49,223.81l-.93.5v-3.2l-.37.2v-.1l.46-1.5.84-.4v4.5"/><path class="cls-44" d="M1151.51,223.21c-.1,0-.1,0-.19-.1s-.09-.1,0-.2v-3.8a.85.85,0,0,1,.56-.7l2-1.1a.5.5,0,0,1,.37-.1.2.2,0,0,1,.18.2v3.8a.85.85,0,0,1-.55.7l-2,1.1A.36.36,0,0,1,1151.51,223.21Zm2-5-1.3.7v3.4l1.3-.7Z"/><path class="cls-44" d="M1155.49,220.81c-.09,0-.09,0-.18-.1s-.1-.1-.1-.2v-3.8a.85.85,0,0,1,.56-.7l2-1.1a.5.5,0,0,1,.37-.1.2.2,0,0,1,.18.2v3.8a.84.84,0,0,1-.55.7l-2,1.1C1155.77,220.81,1155.58,220.81,1155.49,220.81Zm2-5-1.3.7v3.4l1.3-.7Z"/><path class="cls-44" d="M1160.5,218.31l-.93.5v-3.2l-.37.2v-.1l.46-1.5.84-.4v4.5"/><path class="cls-44" d="M1161.79,217.71c-.09,0-.09,0-.18-.1s-.1-.1-.1-.2v-3.7a.85.85,0,0,1,.56-.7l2-1.1a.55.55,0,0,1,.37-.1.21.21,0,0,1,.19.2v3.8a.85.85,0,0,1-.56.7l-2,1.1A.42.42,0,0,1,1161.79,217.71Zm2-5.1-1.3.7v3.4l1.3-.7Z"/><path class="cls-44" d="M1169.85,213.51c-.09,0-.09,0-.18-.1s-.09-.1-.09-.2v-3.8c0-.3.18-.5.55-.7l2-1.1a.5.5,0,0,1,.37-.1.21.21,0,0,1,.19.2v3.8a.85.85,0,0,1-.56.7l-2,1.1C1170.13,213.41,1170,213.41,1169.85,213.51Zm2-5.1-1.29.7v3.4l1.29-.7Z"/><path class="cls-44" d="M1174.86,210.91l-.93.5v-3.2l-.37.2v-.1l.56-1.5.83-.4v4.5"/><path class="cls-44" d="M1175.88,210.31c-.09,0-.09,0-.19-.1s-.09-.1-.09-.2v-3.8c0-.3.19-.5.56-.7l2-1.1a.55.55,0,0,1,.37-.1.21.21,0,0,1,.19.2v3.8a.85.85,0,0,1-.56.7l-2,1.1C1176.16,210.21,1176.06,210.31,1175.88,210.31Zm2-5.1-1.3.7v3.4l1.3-.7Z"/><path class="cls-44" d="M1180,208.21c-.09,0-.09,0-.18-.1s-.09-.1-.09-.2v-3.8c0-.3.18-.5.55-.7l2-1.1a.55.55,0,0,1,.37-.1.21.21,0,0,1,.19.2v3.8a.85.85,0,0,1-.56.7l-2,1.1A.49.49,0,0,1,1180,208.21Zm2-5.1-1.29.7v3.4l1.29-.7Z"/><path class="cls-44" d="M1185,205.61l-.93.5v-3.2l-.37.2V203l.46-1.5.84-.4v4.5"/><path class="cls-44" d="M1190,202.91c-.09,0-.09,0-.18-.1s-.1-.1,0-.2v-3.8a.85.85,0,0,1,.55-.7l2-1.1a.55.55,0,0,1,.37-.1.21.21,0,0,1,.19.2v3.8a.85.85,0,0,1-.56.7l-2,1.1A.45.45,0,0,1,1190,202.91Zm2.13-5-1.29.7V202l1.29-.7Z"/><path class="cls-44" d="M1194,200.81c-.09,0-.09,0-.19-.1s-.09-.1-.09-.2v-3.8a.85.85,0,0,1,.56-.7l2-1.1a.5.5,0,0,1,.37-.1.2.2,0,0,1,.18.2v3.8a.85.85,0,0,1-.55.7l-2,1.1C1194.32,200.71,1194.13,200.81,1194,200.81Zm2-5.1-1.3.7v3.4l1.3-.7Z"/><path class="cls-44" d="M1198,198.71c-.09,0-.09,0-.18-.1s-.09-.1,0-.2v-3.7a.85.85,0,0,1,.55-.7l2-1.1a.55.55,0,0,1,.37-.1.21.21,0,0,1,.19.2v3.8a.85.85,0,0,1-.56.7l-2,1.1A.69.69,0,0,0,1198,198.71Zm2-5.1-1.29.7v3.4l1.29-.7Z"/><path class="cls-44" d="M1129.08,242.51l-.92.5v-3.3l-.37.2v-.1l.46-1.5.83-.4v4.6"/><path class="cls-44" d="M1130.1,241.81c-.09,0-.09,0-.18-.1s-.1-.1-.1-.2v-3.7a.85.85,0,0,1,.56-.7l2-1.1a.55.55,0,0,1,.37-.1.2.2,0,0,1,.18.2v3.8a.84.84,0,0,1-.55.7l-2,1.1C1130.38,241.81,1130.19,241.81,1130.1,241.81Zm2-5-1.3.7v3.4l1.3-.7Z"/><path class="cls-44" d="M1134.09,239.71c-.1,0-.1,0-.19-.1s-.09-.1,0-.2v-3.7a.85.85,0,0,1,.56-.7l2-1.1a.5.5,0,0,1,.37-.1.2.2,0,0,1,.18.2v3.8a.85.85,0,0,1-.55.7l-2,1.1A.55.55,0,0,1,1134.09,239.71Zm2-5-1.29.7v3.4l1.29-.7Z"/><path class="cls-44" d="M1139.09,237.11l-.93.5v-3.2l-.37.2v-.1l.47-1.5.83-.4v4.5"/><path class="cls-44" d="M1141.13,236.11l-.93.5v-3.2l-.37.2v-.1l.46-1.5.84-.4v4.5"/><path class="cls-44" d="M1147.43,232.61c-.09,0-.09,0-.19-.1s-.09-.1,0-.2v-3.8a.85.85,0,0,1,.56-.7l2-1.1a.55.55,0,0,1,.37-.1.21.21,0,0,1,.19.2v3.9a.85.85,0,0,1-.56.7l-2,1.1A.55.55,0,0,1,1147.43,232.61Zm2-5-1.3.7v3.4l1.3-.7Z"/><path class="cls-44" d="M1152.43,230.11l-.92.5v-3.2l-.37.2v-.1l.46-1.5.83-.4v4.5"/><path class="cls-44" d="M1153.45,229.51c-.09,0-.09,0-.18-.1s-.09-.1,0-.2v-3.8a.85.85,0,0,1,.55-.7l2-1.1a.55.55,0,0,1,.37-.1.21.21,0,0,1,.19.2v3.8a.85.85,0,0,1-.56.7l-2,1.1C1153.73,229.41,1153.55,229.41,1153.45,229.51Zm2-5.1-1.3.7v3.4l1.3-.7Z"/><path class="cls-44" d="M1157.44,227.31c-.1,0-.1,0-.19-.1s-.09-.1-.09-.2v-3.8a.85.85,0,0,1,.56-.7l2-1.1a.55.55,0,0,1,.37-.1.21.21,0,0,1,.19.2v3.8a.85.85,0,0,1-.56.7l-2,1.1C1157.72,227.31,1157.62,227.31,1157.44,227.31Zm2-5-1.3.7v3.4l1.3-.7Z"/><path class="cls-44" d="M1162.44,224.81l-.93.5v-3.2l-.37.2v-.1l.47-1.5.83-.4v4.5"/><path class="cls-44" d="M1173.47,218.91l-.93.5v-3.2l-.37.2v-.1l.46-1.5.84-.4v4.5"/><path class="cls-44" d="M1174.49,218.21c-.09,0-.09,0-.19-.1s-.09-.1,0-.2v-3.8a.85.85,0,0,1,.56-.7l2-1.1a.55.55,0,0,1,.37-.1.2.2,0,0,1,.18.2v3.8a.85.85,0,0,1-.55.7l-2,1.1C1174.77,218.21,1174.67,218.21,1174.49,218.21Zm2-5-1.3.7v3.4l1.3-.7Z"/><path class="cls-44" d="M1178.56,216.11c-.09,0-.09,0-.18-.1s-.09-.1,0-.2V212a.85.85,0,0,1,.56-.7l2-1.1a.55.55,0,0,1,.37-.1.21.21,0,0,1,.19.2v3.8a.85.85,0,0,1-.56.7l-2,1.1A.38.38,0,0,1,1178.56,216.11Zm2-5-1.29.7v3.4l1.29-.7Z"/><path class="cls-44" d="M1182.55,214c-.09,0-.09,0-.19-.1s-.09-.1,0-.2v-3.8a.85.85,0,0,1,.56-.7l2-1.1a.55.55,0,0,1,.37-.1.2.2,0,0,1,.18.2V212a.84.84,0,0,1-.55.7l-2,1.1C1182.83,214,1182.73,214,1182.55,214Zm2-5-1.3.7v3.4l1.3-.7Z"/><path class="cls-44" d="M1190,210.11c-.09,0-.09,0-.18-.1s-.1-.1,0-.2V206a.85.85,0,0,1,.55-.7l2-1.1a.55.55,0,0,1,.37-.1.21.21,0,0,1,.19.2v3.8a.85.85,0,0,1-.56.7l-2,1.1A.34.34,0,0,1,1190,210.11Zm2-5-1.3.7v3.4l1.3-.7Z"/><path class="cls-44" d="M1194,208c-.1,0-.1,0-.19-.1s-.09-.1-.09-.2v-3.8a.85.85,0,0,1,.56-.7l2-1.1a.55.55,0,0,1,.37-.1.21.21,0,0,1,.19.2V206a.85.85,0,0,1-.56.7l-2,1.1C1194.23,208,1194.13,208,1194,208Zm2-5-1.3.7v3.4l1.3-.7Z"/><path class="cls-44" d="M1199,205.51l-.93.5v-3.3l-.37.2v-.1l.47-1.5.83-.4v4.6"/><path class="cls-44" d="M1200,204.91a.21.21,0,0,1-.19-.2v-3.8a.85.85,0,0,1,.56-.7l2-1.1a.55.55,0,0,1,.37-.1.21.21,0,0,1,.19.2V203a.85.85,0,0,1-.56.7l-2,1.1A.7.7,0,0,0,1200,204.91Zm2.13-5.1-1.3.7v3.4l1.3-.7Z"/><path class="cls-44" d="M1205,202.31l-.92.5v-3.2l-.37.2v-.1l.46-1.5.83-.4v4.5"/><path class="cls-44" d="M1206.09,201.71c-.1,0-.1,0-.19-.1s-.09-.1-.09-.2v-3.7a.85.85,0,0,1,.55-.7l2-1.1a.55.55,0,0,1,.37-.1.21.21,0,0,1,.19.2v3.8a.85.85,0,0,1-.56.7l-2,1.1A.79.79,0,0,1,1206.09,201.71Zm2-5-1.29.7v3.4l1.29-.7Z"/><path class="cls-44" d="M1211.09,199.11l-.93.5v-3.2l-.37.2v-.1l.47-1.5.83-.4v4.5"/><path class="cls-44" d="M1128.06,250.21c-.09,0-.09,0-.18-.1s-.09-.1-.09-.2v-3.8a.84.84,0,0,1,.55-.7l2-1.1a.55.55,0,0,1,.37-.1.21.21,0,0,1,.19.2v3.8a.85.85,0,0,1-.56.7l-2,1.1C1128.34,250.11,1128.16,250.21,1128.06,250.21Zm2-5.1-1.3.7v3.4l1.3-.7Z"/><path class="cls-44" d="M1133.07,247.61l-.93.5v-3.2l-.37.2V245l.46-1.5.84-.4v4.5"/><path class="cls-44" d="M1134.09,247c-.1,0-.1,0-.19-.1s-.09-.1-.09-.2V243a.85.85,0,0,1,.55-.7l2-1.1a.55.55,0,0,1,.37-.1.21.21,0,0,1,.19.2v3.8a.85.85,0,0,1-.56.7l-2,1.1A.79.79,0,0,1,1134.09,247Zm2-5.1-1.29.7V246l1.29-.7Z"/><path class="cls-44" d="M1139.09,244.41l-.93.5v-3.2l-.37.2v-.1l.47-1.5.83-.4v4.5"/><path class="cls-44" d="M1147.43,239.91c-.09,0-.09,0-.19-.1s-.09-.1-.09-.2v-3.7a.85.85,0,0,1,.56-.7l2-1.1a.5.5,0,0,1,.37-.1.2.2,0,0,1,.18.2V238a.85.85,0,0,1-.55.7l-2,1.1C1147.71,239.91,1147.52,239.91,1147.43,239.91Zm2-5-1.3.7V239l1.3-.7Z"/><path class="cls-44" d="M1152.43,237.31l-.92.5v-3.2l-.37.2v-.1l.46-1.5.83-.4v4.5"/><path class="cls-44" d="M1153.45,236.71c-.09,0-.09,0-.18-.1s-.09-.1,0-.2v-3.7a.85.85,0,0,1,.55-.7l2-1.1a.55.55,0,0,1,.37-.1.21.21,0,0,1,.19.2v3.8c0,.3-.19.5-.56.7l-2,1.1A.5.5,0,0,1,1153.45,236.71Zm2-5-1.3.7v3.4l1.3-.7Z"/><path class="cls-44" d="M1158.46,234.21l-.93.5v-3.2l-.37.2v-.1l.46-1.5.84-.4v4.5"/><path class="cls-44" d="M1159.48,233.51c-.1,0-.1,0-.19-.1s-.09-.1-.09-.2v-3.8a.85.85,0,0,1,.55-.7l2-1.1a.55.55,0,0,1,.37-.1.21.21,0,0,1,.19.2v3.8a.85.85,0,0,1-.56.7l-2,1.1C1159.75,233.51,1159.57,233.51,1159.48,233.51Zm2-5-1.29.7v3.4l1.29-.7Z"/><path class="cls-44" d="M1163.46,231.71l-.93.5V229l-.37.2v-.1l.47-1.5.83-.4v4.5"/><path class="cls-44" d="M1169.48,228.51l-.92.5v-3.3l-.37.2v-.1l.46-1.5.83-.4v4.6"/><path class="cls-44" d="M1170.5,227.91c-.09,0-.09,0-.18-.1s-.09-.1-.09-.2v-3.8c0-.3.18-.5.55-.7l2-1.1a.55.55,0,0,1,.37-.1.21.21,0,0,1,.19.2v3.8a.85.85,0,0,1-.56.7l-2,1.1C1170.78,227.81,1170.69,227.81,1170.5,227.91Zm2.13-5.1-1.29.7v3.4l1.29-.7Z"/><path class="cls-44" d="M1175.51,225.31l-.93.5v-3.2l-.37.2v-.1l.46-1.5.84-.4v4.5"/><path class="cls-44" d="M1176.62,224.71c-.09,0-.09,0-.19-.1s-.09-.1-.09-.2v-3.7c0-.3.19-.5.56-.7l2-1.1a.5.5,0,0,1,.37-.1.2.2,0,0,1,.18.2v3.8a.85.85,0,0,1-.55.7l-2,1.1A.42.42,0,0,0,1176.62,224.71Zm2-5.1-1.3.7v3.4l1.3-.7Z"/><path class="cls-44" d="M1181.62,231.11l-.92.5v-3.2l-.37.2v-.1l.46-1.5.83-.4v4.5"/><path class="cls-44" d="M1182.64,221.21c-.09,0-.09,0-.18-.1s-.1-.1,0-.2v-3.8a.84.84,0,0,1,.55-.7l2-1.1a.55.55,0,0,1,.37-.1.21.21,0,0,1,.19.2v3.8a.85.85,0,0,1-.56.7l-2,1.1A.36.36,0,0,1,1182.64,221.21Zm2-5-1.3.7v3.4l1.3-.7Z"/><path class="cls-44" d="M1190,217.41c-.09,0-.09,0-.18-.1s-.1-.1,0-.2v-3.8a.85.85,0,0,1,.55-.7l2-1.1a.55.55,0,0,1,.37-.1.21.21,0,0,1,.19.2v3.8a.85.85,0,0,1-.56.7l-2,1.1C1190.24,217.31,1190.15,217.31,1190,217.41Zm2.13-5.1-1.29.7v3.4l1.29-.7Z"/><path class="cls-44" d="M1195,214.81l-.93.5v-3.2l-.37.2v-.1l.46-1.5.84-.4v4.5"/><path class="cls-44" d="M1196.08,214.21c-.09,0-.09,0-.19-.1s-.09-.1-.09-.2v-3.8a.85.85,0,0,1,.56-.7l2-1.1a.58.58,0,0,1,.38-.1.2.2,0,0,1,.18.2v3.8a.85.85,0,0,1-.56.7l-2,1.1C1196.26,214.11,1196.17,214.21,1196.08,214.21Zm2-5-1.3.7v3.4l1.3-.7Z"/><path class="cls-44" d="M1201.08,211.61l-.92.5v-3.2l-.38.2V209l.47-1.5.83-.4v4.5"/><path class="cls-44" d="M1202.1,211c-.09,0-.09,0-.18-.1s-.1-.1,0-.2v-3.8a.84.84,0,0,1,.55-.7l2-1.1a.55.55,0,0,1,.37-.1.21.21,0,0,1,.19.2V209a.85.85,0,0,1-.56.7l-2,1.1A.75.75,0,0,1,1202.1,211Zm2-5-1.3.7v3.4l1.3-.7Z"/><path class="cls-44" d="M1207.11,208.41l-.93.5v-3.2l-.37.2v-.1l.46-1.5.84-.4v4.5"/><path class="cls-44" d="M1208.12,207.81a.2.2,0,0,1-.18-.2v-3.8a.85.85,0,0,1,.56-.7l2-1.1a.55.55,0,0,1,.37-.1.21.21,0,0,1,.19.2v3.8a.85.85,0,0,1-.56.7l-2,1.1C1208.4,207.81,1208.31,207.81,1208.12,207.81Zm2-5-1.29.7v3.4l1.29-.7Z"/><path class="cls-44" d="M1129.08,257l-.92.5v-3.2l-.37.2v-.1l.46-1.5.83-.4V257"/><path class="cls-44" d="M1130.1,256.41c-.09,0-.09,0-.18-.1s-.1-.1,0-.2v-3.8a.84.84,0,0,1,.55-.7l2-1.1a.5.5,0,0,1,.37-.1.21.21,0,0,1,.19.2v3.8a.85.85,0,0,1-.56.7l-2,1.1A.75.75,0,0,1,1130.1,256.41Zm2-5.1-1.3.7v3.4l1.3-.7Z"/><path class="cls-44" d="M1135.11,253.81l-.93.5v-3.2l-.37.2v-.1l.46-1.5.84-.4v4.5"/><path class="cls-44" d="M1136.12,253.21c-.09,0-.09,0-.18-.1s-.09-.1-.09-.2v-3.8a.84.84,0,0,1,.55-.7l2-1.1a.55.55,0,0,1,.37-.1.21.21,0,0,1,.19.2v3.8a.85.85,0,0,1-.56.7l-2,1.1C1136.4,253.11,1136.22,253.21,1136.12,253.21Zm2-5.1h0l-1.29.7v3.4l1.29-.7Z"/><path class="cls-44" d="M1141.13,250.61l-.93.5v-3.2l-.37.2V248l.46-1.5.84-.4v4.5"/><path class="cls-44" d="M1148.45,246.71l-.93.5V244l-.37.2v-.1l.47-1.5.83-.4v4.5"/><path class="cls-44" d="M1149.47,246.11c-.09,0-.09,0-.19-.1s-.09-.1,0-.2v-3.7a.85.85,0,0,1,.56-.7l2-1.1a.55.55,0,0,1,.37-.1.2.2,0,0,1,.18.2v3.8a.84.84,0,0,1-.55.7l-2,1.1A.5.5,0,0,1,1149.47,246.11Zm2-5h0l-1.3.7v3.4l1.3-.7Z"/><path class="cls-44" d="M1154.47,243.51l-.92.5v-3.2l-.37.2v-.1l.46-1.5.83-.4v4.5"/><path class="cls-44" d="M1155.49,242.91a.2.2,0,0,1-.18-.2v-3.8a.84.84,0,0,1,.55-.7l2-1.1a.55.55,0,0,1,.37-.1.21.21,0,0,1,.19.2V241a.85.85,0,0,1-.56.7l-2,1.1A.54.54,0,0,1,1155.49,242.91Zm2-5-1.3.7V242l1.3-.7Z"/><path class="cls-44" d="M1159.48,240.81c-.1,0-.1,0-.19-.1s-.09-.1-.09-.2v-3.7c0-.3.18-.5.55-.7l2-1.1a.55.55,0,0,1,.37-.1.21.21,0,0,1,.19.2v3.8a.85.85,0,0,1-.56.7l-2,1.1A.79.79,0,0,1,1159.48,240.81Zm2-5-1.29.7v3.4l1.29-.7Z"/><path class="cls-44" d="M1181.34,229.51l-.92.5v-3.3l-.37.2v-.1l.46-1.5.83-.4v4.6"/><path class="cls-44" d="M1182.36,228.91c-.09,0-.09,0-.18-.1s-.09-.1-.09-.2v-3.8a.84.84,0,0,1,.55-.7l2-1.1a.55.55,0,0,1,.37-.1.21.21,0,0,1,.19.2v3.8a.85.85,0,0,1-.56.7l-2,1.1C1182.64,228.81,1182.55,228.91,1182.36,228.91Zm2.14-5.1-1.3.7v3.4l1.3-.7Z"/><path class="cls-44" d="M1191.63,224.11l-.93.5v-3.2l-.37.2v-.1l.47-1.5.83-.4v4.5"/><path class="cls-44" d="M1193.67,223l-.93.5v-3.2l-.37.2v-.1l.47-1.5.83-.4V223"/><path class="cls-44" d="M1194.69,231.21c-.09,0-.09,0-.19-.1s-.09-.1,0-.2v-3.8a.85.85,0,0,1,.56-.7l2-1.1a.55.55,0,0,1,.37-.1.2.2,0,0,1,.18.2v3.8a.84.84,0,0,1-.55.7l-2,1.1C1195,231.21,1194.87,231.21,1194.69,231.21Zm2-5-1.3.7v3.4l1.3-.7Z"/><path class="cls-44" d="M1199.69,219.61l-.92.5v-3.2l-.38.2V217l.47-1.5.83-.4v4.5"/><path class="cls-44" d="M1200.71,218.91c-.09,0-.09,0-.18-.1s-.1-.1,0-.2v-3.8a.84.84,0,0,1,.55-.7l2-1.1a.55.55,0,0,1,.37-.1.21.21,0,0,1,.19.2v3.8a.85.85,0,0,1-.56.7l-2,1.1C1201,218.91,1200.9,218.91,1200.71,218.91Zm2.13-5-1.29.7V218l1.29-.7Z"/><path class="cls-44" d="M1204.79,216.81a.21.21,0,0,1-.19-.2v-3.8a.85.85,0,0,1,.56-.7l2-1.1a.55.55,0,0,1,.37-.1.2.2,0,0,1,.18.2v3.8c0,.3-.18.5-.55.7l-2,1.1A.5.5,0,0,1,1204.79,216.81Zm2-5-1.3.7v3.4l1.3-.7Z"/><path class="cls-44" d="M1208.77,214.71c-.09,0-.09,0-.18-.1s-.09-.1-.09-.2v-3.7a.84.84,0,0,1,.55-.7l2-1.1a.55.55,0,0,1,.37-.1.21.21,0,0,1,.19.2v3.8a.85.85,0,0,1-.56.7l-2,1.1C1209.05,214.71,1209,214.71,1208.77,214.71Zm2-5-1.3.7v3.4l1.3-.7Z"/><path class="cls-44" d="M1129.08,264.31l-.92.5v-3.2l-.37.2v-.1l.46-1.5.83-.4v4.5"/><path class="cls-44" d="M1130.1,263.61c-.09,0-.09,0-.18-.1s-.1-.1-.1-.2v-3.8a.85.85,0,0,1,.56-.7l2-1.1a.5.5,0,0,1,.37-.1.2.2,0,0,1,.18.2v3.9c0,.3-.18.5-.55.7l-2,1.1C1130.38,263.61,1130.19,263.61,1130.1,263.61Zm2-5-1.3.7v3.4l1.3-.7Z"/><path class="cls-44" d="M1134.09,261.51c-.1,0-.1,0-.19-.1s-.09-.1,0-.2v-3.8a.85.85,0,0,1,.56-.7l2-1.1a.5.5,0,0,1,.37-.1.2.2,0,0,1,.18.2v3.8a.85.85,0,0,1-.55.7l-2,1.1A.36.36,0,0,1,1134.09,261.51Zm2-5-1.29.7v3.4l1.29-.7Z"/><path class="cls-44" d="M1138.07,259.41c-.09,0-.09,0-.18-.1s-.1-.1-.1-.2v-3.8a.85.85,0,0,1,.56-.7l2-1.1a.5.5,0,0,1,.37-.1.2.2,0,0,1,.18.2v3.8a.84.84,0,0,1-.55.7l-2,1.1C1138.35,259.31,1138.26,259.41,1138.07,259.41Zm2-5-1.3.7v3.4l1.3-.7Z"/><path class="cls-44" d="M1149.1,253.61l-.93.5v-3.2l-.37.2V251l.46-1.5.84-.4v4.5"/><path class="cls-44" d="M1150.12,253c-.1,0-.1,0-.19-.1s-.09-.1-.09-.2v-3.8a.85.85,0,0,1,.56-.7l2-1.1a.55.55,0,0,1,.37-.1.21.21,0,0,1,.19.2V251a.85.85,0,0,1-.56.7l-2,1.1C1150.4,253,1150.21,253,1150.12,253Zm2-5-1.3.7v3.4l1.3-.7Z"/><path class="cls-44" d="M1155.12,250.51l-.93.5v-3.3l-.37.2v-.1l.47-1.5.83-.4v4.6"/><path class="cls-44" d="M1156.14,249.81c-.09,0-.09,0-.18-.1s-.1-.1-.1-.2v-3.8c0-.3.19-.5.56-.7l2-1.1a.5.5,0,0,1,.37-.1.2.2,0,0,1,.18.2v3.8a.85.85,0,0,1-.55.7l-2,1.1C1156.42,249.81,1156.23,249.81,1156.14,249.81Zm2-5-1.3.7v3.4l1.3-.7Z"/><path class="cls-44" d="M1191.63,231.31l-.93.5v-3.2l-.37.2v-.1l.47-1.5.83-.4v4.5"/><path class="cls-44" d="M1192.65,230.71c-.09,0-.09,0-.19-.1s-.09-.1,0-.2v-3.7c0-.3.19-.5.56-.7l2-1.1a.55.55,0,0,1,.37-.1.21.21,0,0,1,.19.2v3.8c0,.3-.19.5-.56.7l-2,1.1C1192.93,230.71,1192.84,230.71,1192.65,230.71Zm2.13-5-1.3.7v3.4l1.3-.7Z"/><path class="cls-44" d="M1196.73,228.61c-.1,0-.1,0-.19-.1s-.09-.1-.09-.2v-3.8a.85.85,0,0,1,.56-.7l2-1.1a.55.55,0,0,1,.37-.1.21.21,0,0,1,.19.2v3.9a.85.85,0,0,1-.56.7l-2,1.1A.94.94,0,0,1,1196.73,228.61Zm2-5-1.3.7v3.4l1.3-.7Z"/><path class="cls-44" d="M1200.71,226.51c-.09,0-.09,0-.18-.1s-.1-.1,0-.2v-3.8a.84.84,0,0,1,.55-.7l2-1.1a.5.5,0,0,1,.37-.1.21.21,0,0,1,.19.2v3.8a.85.85,0,0,1-.56.7l-2,1.1A.45.45,0,0,1,1200.71,226.51Zm2-5.1-1.3.7v3.4l1.3-.7Z"/><path class="cls-44" d="M1205.72,223.91l-.93.5v-3.2l-.37.2v-.1l.46-1.5.84-.4v4.5"/><path class="cls-44" d="M1206.73,223.31c-.09,0-.09,0-.18-.1s-.09-.1-.09-.2v-3.8a.84.84,0,0,1,.55-.7l2-1.1a.5.5,0,0,1,.37-.1.21.21,0,0,1,.19.2v3.8a.85.85,0,0,1-.56.7l-2,1.1C1207,223.21,1206.92,223.31,1206.73,223.31Zm2.14-5-1.3.7v3.4l1.3-.7Z"/><path class="cls-44" d="M1129.08,271.51l-.92.5v-3.2l-.37.2v-.1l.46-1.5.83-.4v4.5"/><path class="cls-44" d="M1131,270.51l-.93.5v-3.3l-.37.2v-.1l.56-1.5.83-.4v4.6"/><path class="cls-44" d="M1132.05,269.81c-.09,0-.09,0-.19-.1s-.09-.1-.09-.2v-3.8a.85.85,0,0,1,.56-.7l2-1.1a.58.58,0,0,1,.38-.1.2.2,0,0,1,.18.2v3.8a.85.85,0,0,1-.56.7l-2,1.1C1132.33,269.81,1132.23,269.81,1132.05,269.81Zm2.13-5-1.3.7v3.4l1.3-.7Z"/><path class="cls-44" d="M1136.12,267.71c-.09,0-.09,0-.18-.1s-.09-.1-.09-.2v-3.7a.84.84,0,0,1,.55-.7l2-1.1a.5.5,0,0,1,.37-.1.21.21,0,0,1,.19.2v3.8c0,.3-.19.5-.56.7l-2,1.1C1136.4,267.71,1136.22,267.71,1136.12,267.71Zm2-5-1.29.7v3.4l1.29-.7Z"/><path class="cls-44" d="M1147.43,261.71c-.09,0-.09,0-.19-.1s-.09-.1,0-.2v-3.7a.85.85,0,0,1,.56-.7l2-1.1a.5.5,0,0,1,.37-.1.21.21,0,0,1,.19.2v3.8a.85.85,0,0,1-.56.7l-2,1.1A.55.55,0,0,1,1147.43,261.71Zm2-5-1.3.7v3.4l1.3-.7Z"/><path class="cls-44" d="M1152.43,259.11l-.92.5v-3.2l-.37.2v-.1l.46-1.5.83-.4v4.5"/><path class="cls-44" d="M1153.45,258.51c-.09,0-.09,0-.18-.1s-.09-.1,0-.2v-3.8a.85.85,0,0,1,.55-.7l2-1.1a.55.55,0,0,1,.37-.1.21.21,0,0,1,.19.2v3.8a.85.85,0,0,1-.56.7l-2,1.1A.36.36,0,0,1,1153.45,258.51Zm2-5-1.3.7v3.4l1.3-.7Z"/><path class="cls-44" d="M1158.46,256l-.93.5v-3.2l-.37.2v-.1l.46-1.5.84-.4V256"/><path class="cls-44" d="M1159.48,255.31c-.1,0-.1,0-.19-.1s-.09-.1-.09-.2v-3.8a.85.85,0,0,1,.55-.7l2-1.1a.55.55,0,0,1,.37-.1.21.21,0,0,1,.19.2v3.8a.85.85,0,0,1-.56.7l-2,1.1C1159.75,255.31,1159.57,255.31,1159.48,255.31Zm2-5-1.29.7v3.4l1.29-.7Z"/><path class="cls-44" d="M1170.5,249.71c-.09,0-.09,0-.18-.1s-.09-.1-.09-.2v-3.7a.84.84,0,0,1,.55-.7l2-1.1a.55.55,0,0,1,.37-.1.21.21,0,0,1,.19.2v3.7a.85.85,0,0,1-.56.7l-2,1.1C1170.78,249.61,1170.6,249.71,1170.5,249.71Zm2-5-1.3.7v3.4l1.3-.7Z"/><path class="cls-44" d="M1175.51,247.11l-.93.5v-3.2l-.37.2v-.1l.56-1.5.83-.4v4.5"/><path class="cls-44" d="M1176.53,246.51c-.1,0-.1,0-.19-.1s-.09-.1-.09-.2v-3.7c0-.3.18-.5.55-.7l2.14-1.1a.5.5,0,0,1,.37-.1.2.2,0,0,1,.18.2v3.8a.85.85,0,0,1-.55.7l-2,1.1C1176.8,246.41,1176.71,246.51,1176.53,246.51Zm2-5-1.29.7v3.4l1.29-.7Z"/><path class="cls-44" d="M1181.53,243.91l-.93.5v-3.2l-.37.2v-.1l.47-1.5.83-.4v4.5"/><path class="cls-44" d="M1182.55,243.31c-.09,0-.09,0-.19-.1s-.09-.1-.09-.2v-3.7a.85.85,0,0,1,.56-.7l2-1.1a.5.5,0,0,1,.37-.1.2.2,0,0,1,.18.2v3.8a.85.85,0,0,1-.55.7l-2,1.1A.42.42,0,0,1,1182.55,243.31Zm2.13-5-1.3.7v3.4l1.3-.7Z"/><path class="cls-44" d="M1191.63,238.61l-.93.5v-3.2l-.37.2V236l.47-1.5.83-.4v4.5"/><path class="cls-44" d="M1193.67,237.51l-.93.5v-3.2l-.37.2v-.1l.47-1.5.83-.4v4.5"/><path class="cls-44" d="M1194.69,236.91c-.09,0-.09,0-.19-.1s-.09-.1,0-.2v-3.8a.85.85,0,0,1,.56-.7l2-1.1a.55.55,0,0,1,.37-.1.2.2,0,0,1,.18.2v3.8a.84.84,0,0,1-.55.7l-2,1.1A.45.45,0,0,1,1194.69,236.91Zm2.13-5-1.3.7V236l1.3-.7Z"/><path class="cls-44" d="M1199.69,234.31l-.92.5v-3.2l-.38.2v-.1l.47-1.5.83-.4v4.5"/><path class="cls-44" d="M1200.8,233.71c-.09,0-.09,0-.18-.1s-.09-.1-.09-.2v-3.7a.84.84,0,0,1,.55-.7l2-1.1a.55.55,0,0,1,.37-.1.21.21,0,0,1,.19.2v3.8a.85.85,0,0,1-.56.7l-2,1.1C1201.08,233.71,1200.9,233.71,1200.8,233.71Zm2-5-1.29.7v3.4l1.29-.7Z"/><path class="cls-44" d="M1204.79,231.61c-.09,0-.09,0-.19-.1s-.09-.1,0-.2v-3.8a.85.85,0,0,1,.56-.7l2-1.1a.55.55,0,0,1,.37-.1.2.2,0,0,1,.18.2v3.9a.84.84,0,0,1-.55.7l-2,1.1C1205.07,231.51,1205,231.61,1204.79,231.61Zm2-5-1.3.7v3.4l1.3-.7Z"/><path class="cls-44" d="M1129.08,278.81l-.92.5v-3.2l-.37.2v-.1l.46-1.5.83-.4v4.5"/><path class="cls-44" d="M1131,277.71l-.93.5V275l-.37.2v-.1l.56-1.5.83-.4v4.5"/><path class="cls-44" d="M1133.07,276.71l-.93.5V274l-.37.2v-.1l.46-1.5.84-.4v4.5"/><path class="cls-44" d="M1134.09,276c-.1,0-.1,0-.19-.1s-.09-.1,0-.2v-3.8a.85.85,0,0,1,.56-.7l2-1.1a.5.5,0,0,1,.37-.1.2.2,0,0,1,.18.2V274a.85.85,0,0,1-.55.7l-2,1.1C1134.36,276,1134.27,276,1134.09,276Zm2-5-1.29.7v3.4l1.29-.7Z"/><path class="cls-44" d="M1138.07,273.91a.2.2,0,0,1-.18-.2v-3.8c0-.3.18-.5.55-.7l2-1.1a.5.5,0,0,1,.37-.1.21.21,0,0,1,.19.2V272a.85.85,0,0,1-.56.7l-2,1.1C1138.35,273.91,1138.26,273.91,1138.07,273.91Zm2.13-5-1.3.7V273l1.3-.7Z"/><path class="cls-44" d="M1148.45,268.51l-.93.5v-3.2l-.37.2v-.1l.47-1.5.83-.4v4.5"/><path class="cls-44" d="M1149.47,267.91c-.09,0-.09,0-.19-.1s-.09-.1,0-.2v-3.8a.85.85,0,0,1,.56-.7l2-1.1a.5.5,0,0,1,.37-.1.2.2,0,0,1,.18.2v3.8a.84.84,0,0,1-.55.7l-2,1.1A.36.36,0,0,1,1149.47,267.91Zm2-5-1.3.7V267l1.3-.7Z"/><path class="cls-44" d="M1153.45,265.81c-.09,0-.09,0-.18-.1s-.09-.1,0-.2v-3.8c0-.3.18-.5.55-.7l2-1.1a.55.55,0,0,1,.37-.1.21.21,0,0,1,.19.2v3.8a.85.85,0,0,1-.56.7l-2,1.1A.62.62,0,0,1,1153.45,265.81Zm2-5-1.3.7v3.4l1.3-.7Z"/><path class="cls-44" d="M1157.44,263.71c-.1,0-.1,0-.19-.1s-.09-.1,0-.2v-3.7a.85.85,0,0,1,.56-.7l2-1.1a.5.5,0,0,1,.37-.1.2.2,0,0,1,.18.2v3.7a.85.85,0,0,1-.55.7l-2,1.1A.45.45,0,0,1,1157.44,263.71Zm2-5.1-1.3.7v3.4l1.3-.7Z"/><path class="cls-44" d="M1176.53,253.71c-.1,0-.1,0-.19-.1s-.09-.1,0-.2v-3.7a.85.85,0,0,1,.56-.7l2-1.1a.5.5,0,0,1,.37-.1.2.2,0,0,1,.18.2v3.8a.85.85,0,0,1-.55.7l-2,1.1C1176.8,253.71,1176.71,253.71,1176.53,253.71Zm2.13-5-1.3.7v3.4l1.3-.7Z"/><path class="cls-44" d="M1180.6,251.61c-.09,0-.09,0-.18-.1s-.09-.1-.09-.2v-3.8a.84.84,0,0,1,.55-.7l2-1.1a.55.55,0,0,1,.37-.1.21.21,0,0,1,.19.2v3.9a.85.85,0,0,1-.56.7l-2,1.1C1180.88,251.61,1180.7,251.61,1180.6,251.61Zm2-5-1.3.7v3.4l1.3-.7Z"/><path class="cls-44" d="M1185.61,249.11l-.93.5v-3.2l-.37.2v-.1l.46-1.5.84-.4v4.5"/><path class="cls-44" d="M1190.61,246.31c-.09,0-.09,0-.18-.1s-.1-.1-.1-.2v-3.7a.85.85,0,0,1,.56-.7l2-1.1a.55.55,0,0,1,.37-.1.2.2,0,0,1,.18.2v3.8a.84.84,0,0,1-.55.7l-2,1.1C1190.89,246.31,1190.8,246.31,1190.61,246.31Zm2.13-5-1.29.7v3.4l1.29-.7Z"/><path class="cls-44" d="M1194.69,244.21c-.09,0-.09,0-.19-.1s-.09-.1,0-.2v-3.7a.85.85,0,0,1,.56-.7l2-1.1a.55.55,0,0,1,.37-.1.2.2,0,0,1,.18.2v3.8a.84.84,0,0,1-.55.7l-2,1.1C1195,244.11,1194.78,244.21,1194.69,244.21Zm2-5-1.3.7v3.4l1.3-.7Z"/><path class="cls-44" d="M1199.69,241.61l-.92.5v-3.2l-.38.2V239l.47-1.5.83-.4v4.5"/><path class="cls-44" d="M1200.71,241c-.09,0-.09,0-.18-.1s-.1-.1,0-.2V237a.84.84,0,0,1,.55-.7l2-1.1a.55.55,0,0,1,.37-.1.21.21,0,0,1,.19.2v3.8a.85.85,0,0,1-.56.7l-2,1.1C1201,241,1200.9,241,1200.71,241Zm2-5-1.3.7v3.4l1.3-.7Z"/><path class="cls-44" d="M1204.7,238.91c-.1,0-.1,0-.19-.1s-.09-.1,0-.2v-3.7a.85.85,0,0,1,.56-.7l2-1.1a.5.5,0,0,1,.37-.1.2.2,0,0,1,.18.2V237a.85.85,0,0,1-.55.7l-2,1.1A1.17,1.17,0,0,1,1204.7,238.91Zm2.13-5-1.3.7V238l1.3-.7Z"/><path class="cls-44" d="M1208.77,236.81c-.09,0-.09,0-.18-.1s-.09-.1,0-.2v-3.8a.85.85,0,0,1,.55-.7l2-1.1a.55.55,0,0,1,.37-.1.21.21,0,0,1,.19.2v3.8a.85.85,0,0,1-.56.7l-2,1.1A.62.62,0,0,1,1208.77,236.81Zm2-5.1-1.3.7v3.4l1.3-.7Z"/><path class="cls-44" d="M1129.08,286.11l-.92.5v-3.2l-.37.2v-.1l.46-1.5.83-.4v4.5"/><path class="cls-44" d="M1131,285l-.93.5v-3.2l-.37.2v-.1l.56-1.5.83-.4V285"/><path class="cls-44" d="M1132.05,284.41c-.09,0-.09,0-.19-.1s-.09-.1-.09-.2v-3.8c0-.3.19-.5.56-.7l2-1.1a.58.58,0,0,1,.38-.1.2.2,0,0,1,.18.2v3.8a.85.85,0,0,1-.56.7l-2,1.1C1132.33,284.31,1132.23,284.41,1132.05,284.41Zm2.13-5.1-1.3.7v3.4l1.3-.7Z"/><path class="cls-44" d="M1136.12,282.31c-.09,0-.09,0-.18-.1s-.09-.1,0-.2v-3.8a.85.85,0,0,1,.56-.7l2-1.1a.55.55,0,0,1,.37-.1.21.21,0,0,1,.19.2v3.8a.85.85,0,0,1-.56.7l-2,1.1C1136.4,282.21,1136.22,282.21,1136.12,282.31Zm2-5.1-1.29.7v3.4l1.29-.7Z"/><path class="cls-44" d="M1148.08,275.91c-.09,0-.09,0-.19-.1s-.09-.1-.09-.2v-3.8a.85.85,0,0,1,.56-.7l2-1.1a.5.5,0,0,1,.37-.1.2.2,0,0,1,.18.2v3.8a.85.85,0,0,1-.55.7l-2,1.1C1148.36,275.81,1148.26,275.91,1148.08,275.91Zm2.13-5-1.3.7V275l1.3-.7Z"/><path class="cls-44" d="M1152.06,273.81c-.09,0-.09,0-.18-.1s-.09-.1,0-.2v-3.8a.85.85,0,0,1,.55-.7l2-1.1a.55.55,0,0,1,.37-.1.21.21,0,0,1,.19.2v3.8a.85.85,0,0,1-.56.7l-2,1.1A.45.45,0,0,1,1152.06,273.81Zm2.13-5.1-1.29.7v3.4l1.29-.7Z"/><path class="cls-44" d="M1156.14,271.61c-.09,0-.09,0-.18-.1s-.1-.1,0-.2v-3.8a.84.84,0,0,1,.55-.7l2-1.1a.5.5,0,0,1,.37-.1.21.21,0,0,1,.19.2v3.9a.85.85,0,0,1-.56.7l-2,1.1A.55.55,0,0,1,1156.14,271.61Zm2-5-1.3.7v3.4l1.3-.7Z"/><path class="cls-44" d="M1160.4,269.51c-.09,0-.09,0-.18-.1s-.1-.1,0-.2v-3.8a.85.85,0,0,1,.55-.7l2-1.1a.5.5,0,0,1,.37-.1.21.21,0,0,1,.19.2v3.8a.85.85,0,0,1-.56.7l-2,1.1C1160.68,269.51,1160.59,269.51,1160.4,269.51Zm2-5-1.3.7v3.4l1.3-.7Z"/><path class="cls-44" d="M1165.41,267l-.93.5v-3.2l-.37.2v-.1l.46-1.5.84-.4V267"/><path class="cls-44" d="M1174.49,262.11c-.09,0-.09,0-.19-.1s-.09-.1-.09-.2V258c0-.3.19-.5.56-.7l2-1.1a.55.55,0,0,1,.37-.1.21.21,0,0,1,.19.2v3.8a.85.85,0,0,1-.56.7l-2,1.1C1174.77,262,1174.67,262.11,1174.49,262.11Zm2-5-1.3.7v3.4l1.3-.7Z"/><path class="cls-44" d="M1178.56,260c-.09,0-.09,0-.18-.1s-.09-.1,0-.2v-3.8a.85.85,0,0,1,.56-.7l2-1.1a.55.55,0,0,1,.37-.1.21.21,0,0,1,.19.2V258a.85.85,0,0,1-.56.7l-2,1.1A.78.78,0,0,1,1178.56,260Zm2-5.1-1.29.7V259l1.29-.7Z"/><path class="cls-44" d="M1182.55,257.91c-.09,0-.09,0-.19-.1s-.09-.1,0-.2v-3.8a.85.85,0,0,1,.56-.7l2-1.1a.5.5,0,0,1,.37-.1.2.2,0,0,1,.18.2v3.8a.84.84,0,0,1-.55.7l-2,1.1C1182.83,257.81,1182.73,257.81,1182.55,257.91Zm2-5.1-1.3.7v3.4l1.3-.7Z"/><path class="cls-44" d="M1190.61,253.61c-.09,0-.09,0-.18-.1s-.1-.1-.1-.2v-3.8c0-.3.19-.5.56-.7l2-1.1a.55.55,0,0,1,.37-.1.2.2,0,0,1,.18.2v3.9a.84.84,0,0,1-.55.7l-2,1.1C1190.89,253.61,1190.7,253.61,1190.61,253.61Zm2-5-1.3.7v3.4l1.3-.7Z"/><path class="cls-44" d="M1194.6,251.51c-.1,0-.1,0-.19-.1s-.09-.1-.09-.2v-3.8c0-.3.18-.5.55-.7l2-1.1a.55.55,0,0,1,.37-.1.21.21,0,0,1,.19.2v3.8a.85.85,0,0,1-.56.7l-2,1.1C1194.87,251.41,1194.78,251.51,1194.6,251.51Zm2.13-5-1.3.7v3.4l1.3-.7Z"/><path class="cls-44" d="M1199.6,248.91l-.93.5v-3.2l-.37.2v-.1l.47-1.5.83-.4v4.5"/><path class="cls-44" d="M1201.64,247.91l-.93.5v-3.2l-.37.2v-.1l.46-1.5.84-.4v4.5"/><path class="cls-44" d="M1202.66,247.21c-.1,0-.1,0-.19-.1s-.09-.1-.09-.2v-3.7a.85.85,0,0,1,.56-.7l2-1.1a.55.55,0,0,1,.37-.1.21.21,0,0,1,.19.2v3.8a.85.85,0,0,1-.56.7l-2,1.1C1202.94,247.21,1202.84,247.21,1202.66,247.21Zm2.13-5-1.3.7v3.4l1.3-.7Z"/><path class="cls-44" d="M1206.73,245.11c-.09,0-.09,0-.18-.1s-.09-.1-.09-.2v-3.7a.84.84,0,0,1,.55-.7l2-1.1a.55.55,0,0,1,.37-.1.21.21,0,0,1,.19.2v3.8a.85.85,0,0,1-.56.7l-2,1.1C1207,245.11,1206.83,245.11,1206.73,245.11Zm2-5-1.29.7v3.4l1.29-.7Z"/><path class="cls-44" d="M1211.74,242.51l-.93.5v-3.2l-.37.2v-.1l.46-1.5.84-.4v4.5"/><path class="cls-44" d="M1128.06,293.81c-.09,0-.09,0-.18-.1s-.09-.1-.09-.2v-3.8a.84.84,0,0,1,.55-.7l2-1.1a.5.5,0,0,1,.37-.1.21.21,0,0,1,.19.2v3.8a.85.85,0,0,1-.56.7l-2,1.1C1128.34,293.71,1128.16,293.81,1128.06,293.81Zm2-5.1-1.3.7v3.4l1.3-.7Z"/><path class="cls-44" d="M1132.05,291.71c-.09,0-.09,0-.19-.1s-.09-.1,0-.2v-3.8a.85.85,0,0,1,.56-.7l2-1.1a.5.5,0,0,1,.37-.1.2.2,0,0,1,.18.2v3.8a.84.84,0,0,1-.55.7l-2,1.1C1132.33,291.61,1132.23,291.61,1132.05,291.71Zm2-5.1-1.3.7v3.4l1.3-.7Z"/><path class="cls-44" d="M1137.05,289.11l-.93.5v-3.2l-.37.2v-.1l.56-1.5.83-.4v4.5"/><path class="cls-44" d="M1138.07,288.51c-.09,0-.09,0-.18-.1s-.1-.1-.1-.2v-3.8a.85.85,0,0,1,.56-.7l2-1.1a.5.5,0,0,1,.37-.1.2.2,0,0,1,.18.2v3.8a.84.84,0,0,1-.55.7l-2,1.1C1138.35,288.41,1138.26,288.51,1138.07,288.51Zm2-5.1-1.3.7v3.4l1.3-.7Z"/><path class="cls-44" d="M1149.1,282.71l-.93.5V280l-.37.2v-.1l.46-1.5.84-.4v4.5"/><path class="cls-44" d="M1150.12,282.11c-.1,0-.1,0-.19-.1s-.09-.1-.09-.2V278a.85.85,0,0,1,.56-.7l2-1.1a.55.55,0,0,1,.37-.1.21.21,0,0,1,.19.2v3.8a.85.85,0,0,1-.56.7l-2,1.1C1150.4,282,1150.21,282.11,1150.12,282.11Zm2-5-1.3.7v3.4l1.3-.7Z"/><path class="cls-44" d="M1154.1,280c-.09,0-.09,0-.18-.1s-.1-.1-.1-.2v-3.8a.85.85,0,0,1,.56-.7l2-1.1a.5.5,0,0,1,.37-.1.2.2,0,0,1,.18.2V278a.84.84,0,0,1-.55.7l-2,1.1C1154.38,279.91,1154.29,280,1154.1,280Zm2-5.1-1.3.7V279l1.3-.7Z"/><path class="cls-44" d="M1158.09,277.81c-.1,0-.1,0-.19-.1s-.09-.1,0-.2v-3.8a.85.85,0,0,1,.56-.7l2-1.1a.5.5,0,0,1,.37-.1.2.2,0,0,1,.18.2v3.8a.85.85,0,0,1-.55.7l-2,1.2A.79.79,0,0,1,1158.09,277.81Zm2.13-5h0l-1.3.7v3.4l1.3-.7Z"/><path class="cls-44" d="M1163.46,275.31l-.93.5v-3.2l-.37.2v-.1l.47-1.5.83-.4v4.5"/><path class="cls-44" d="M1164.48,274.71c-.09,0-.09,0-.19-.1s-.09-.1,0-.2v-3.7a.85.85,0,0,1,.56-.7l2-1.1a.5.5,0,0,1,.37-.1.21.21,0,0,1,.19.2v3.7a.85.85,0,0,1-.56.7l-2,1.1C1164.76,274.61,1164.57,274.61,1164.48,274.71Zm2-5.1-1.3.7v3.4l1.3-.7Z"/><path class="cls-44" d="M1169.48,272.11l-.92.5v-3.2l-.37.2v-.1l.46-1.5.83-.4v4.5"/><path class="cls-44" d="M1175.51,268.91l-.93.5v-3.2l-.37.2v-.1l.46-1.5.84-.4v4.5"/><path class="cls-44" d="M1177.55,267.81l-.93.5v-3.2l-.37.2v-.1l.46-1.5.84-.4v4.5"/><path class="cls-44" d="M1179.58,266.81l-.92.5v-3.2l-.37.2v-.1l.46-1.5.83-.4v4.5"/><path class="cls-44" d="M1180.6,266.21c-.09,0-.09,0-.18-.1s-.09-.1-.09-.2v-3.8a.84.84,0,0,1,.55-.7l2-1.1a.5.5,0,0,1,.37-.1.21.21,0,0,1,.19.2v3.8a.85.85,0,0,1-.56.7l-2,1.1C1180.88,266.11,1180.7,266.11,1180.6,266.21Zm2-5.1-1.3.7v3.4l1.3-.7Z"/><path class="cls-44" d="M1185.61,263.61l-.93.5v-3.2l-.37.2V261l.56-1.5.83-.4v4.5"/><path class="cls-44" d="M1190.7,260.81c-.09,0-.09,0-.18-.1s-.09-.1,0-.2v-3.8a.85.85,0,0,1,.55-.7l2-1.1a.55.55,0,0,1,.37-.1.21.21,0,0,1,.19.2v3.8a.85.85,0,0,1-.56.7l-2,1.1A.36.36,0,0,1,1190.7,260.81Zm2-5-1.29.7v3.4l1.29-.7Z"/><path class="cls-44" d="M1194.69,258.71c-.09,0-.09,0-.19-.1s-.09-.1,0-.2v-3.7a.85.85,0,0,1,.56-.7l2-1.1a.5.5,0,0,1,.37-.1.2.2,0,0,1,.18.2v3.8a.84.84,0,0,1-.55.7l-2,1.1A1.49,1.49,0,0,1,1194.69,258.71Zm2.13-5h0l-1.3.7v3.4l1.3-.7Z"/><path class="cls-44" d="M1198.77,256.61c-.1,0-.1,0-.19-.1s-.09-.1-.09-.2v-3.8a.85.85,0,0,1,.55-.7l2-1.1a.5.5,0,0,1,.37-.1.21.21,0,0,1,.19.2v3.8a.85.85,0,0,1-.56.7l-2,1.1A.36.36,0,0,1,1198.77,256.61Zm2-5-1.29.7v3.4l1.29-.7Z"/><path class="cls-44" d="M1202.75,254.51c-.09,0-.09,0-.19-.1s-.09-.1,0-.2v-3.8a.85.85,0,0,1,.56-.7l2-1.1a.5.5,0,0,1,.37-.1.21.21,0,0,1,.19.2v3.8a.85.85,0,0,1-.56.7l-2,1.1A.45.45,0,0,1,1202.75,254.51Zm2-5.1-1.3.7v3.4l1.3-.7Z"/><path class="cls-44" d="M1206.83,252.31c-.1,0-.1,0-.19-.1s-.09-.1-.09-.2v-3.8a.85.85,0,0,1,.56-.7l2-1.1a.55.55,0,0,1,.37-.1.21.21,0,0,1,.19.2v3.8a.85.85,0,0,1-.56.7l-2,1.1C1207.11,252.31,1206.92,252.31,1206.83,252.31Zm2-5-1.3.7v3.4l1.3-.7Z"/><path class="cls-44" d="M1211.83,249.81l-.93.5v-3.2l-.37.2v-.1l.47-1.5.83-.4v4.5"/><path class="cls-44" d="M1129.08,300.61l-.92.5v-3.2l-.37.2V298l.46-1.5.83-.4v4.5"/><path class="cls-44" d="M1131,299.51l-.93.5v-3.2l-.37.2v-.1l.56-1.5.83-.4v4.5"/><path class="cls-44" d="M1133.07,298.51l-.93.5v-3.3l-.37.2v-.1l.46-1.5.84-.4v4.6"/><path class="cls-44" d="M1134.09,297.81a.21.21,0,0,1-.19-.2v-3.8a.85.85,0,0,1,.56-.7l2-1.1a.5.5,0,0,1,.37-.1.2.2,0,0,1,.18.2v3.8a.85.85,0,0,1-.55.7l-2,1.1C1134.36,297.81,1134.27,297.81,1134.09,297.81Zm2-5-1.29.7v3.4l1.29-.7Z"/><path class="cls-44" d="M1138.07,295.71c-.09,0-.09,0-.18-.1s-.1-.1,0-.2v-3.7a.84.84,0,0,1,.55-.7l2-1.1a.5.5,0,0,1,.37-.1.21.21,0,0,1,.19.2v3.8a.85.85,0,0,1-.56.7l-2,1.1C1138.35,295.71,1138.26,295.71,1138.07,295.71Zm2.13-5-1.3.7v3.4l1.3-.7Z"/><path class="cls-44" d="M1143.07,293.21l-.92.5v-3.2l-.37.2v-.1l.46-1.5.83-.4v4.5"/><path class="cls-44" d="M1149.28,289.91l-.92.5v-3.2l-.37.2v-.1l.46-1.5.83-.4v4.5"/><path class="cls-44" d="M1150.3,289.31c-.09,0-.09,0-.18-.1s-.1-.1-.1-.2v-3.8a.85.85,0,0,1,.56-.7l2-1.1a.5.5,0,0,1,.37-.1.21.21,0,0,1,.19.2v3.8a.85.85,0,0,1-.56.7l-2,1.1C1150.58,289.21,1150.4,289.31,1150.3,289.31Zm2-5.1-1.3.7v3.4l1.3-.7Z"/><path class="cls-44" d="M1155.31,286.71l-.93.5V284l-.37.2v-.1l.46-1.5.84-.4v4.5"/><path class="cls-44" d="M1157.25,285.61l-.92.5v-3.2l-.37.2V283l.46-1.5.83-.4v4.5"/><path class="cls-44" d="M1159.29,284.61l-.93.5v-3.2l-.37.2V282l.56-1.5.83-.4v4.5"/><path class="cls-44" d="M1160.59,284c-.09,0-.09,0-.19-.1s-.09-.1-.09-.2v-3.8a.85.85,0,0,1,.56-.7l2-1.1a.58.58,0,0,1,.38-.1.2.2,0,0,1,.18.2V282a.85.85,0,0,1-.56.7l-2,1.1C1160.87,283.91,1160.77,283.91,1160.59,284Zm2.13-5.1-1.3.7V283l1.3-.7Z"/><path class="cls-44" d="M1172.54,277.61c-.09,0-.09,0-.18-.1s-.1-.1-.1-.2v-3.8c0-.3.19-.5.56-.7l2-1.1a.5.5,0,0,1,.37-.1.2.2,0,0,1,.18.2v3.9a.84.84,0,0,1-.55.7l-2,1.1C1172.82,277.61,1172.73,277.61,1172.54,277.61Zm2.13-5-1.29.7v3.4l1.29-.7Z"/><path class="cls-44" d="M1177.64,275.11l-.93.5v-3.2l-.37.2v-.1l.46-1.5.84-.4v4.5"/><path class="cls-44" d="M1178.66,274.51c-.1,0-.1,0-.19-.1s-.09-.1-.09-.2v-3.8c0-.3.18-.5.56-.7l2-1.1a.55.55,0,0,1,.37-.1.21.21,0,0,1,.19.2v3.8a.85.85,0,0,1-.56.7l-2,1.1C1178.94,274.41,1178.75,274.41,1178.66,274.51Zm2-5.1-1.3.7v3.4l1.3-.7Z"/><path class="cls-44" d="M1183.66,271.91l-.93.5v-3.2l-.37.2v-.1l.47-1.5.83-.4v4.5"/><path class="cls-44" d="M1185.7,270.81l-.93.5v-3.2l-.37.2v-.1l.47-1.5.83-.4v4.5"/><path class="cls-44" d="M1191.72,267.61l-.92.5v-3.2l-.37.2V265l.46-1.5.83-.4v4.5"/><path class="cls-44" d="M1192.74,267c-.09,0-.09,0-.18-.1s-.1-.1,0-.2v-3.8c0-.3.18-.5.55-.7l2-1.1a.5.5,0,0,1,.37-.1.21.21,0,0,1,.19.2V265a.85.85,0,0,1-.56.7l-2,1.1C1193,267,1192.93,267,1192.74,267Zm2-5-1.3.7v3.4l1.3-.7Z"/><path class="cls-44" d="M1196.73,264.91c-.1,0-.1,0-.19-.1s-.09-.1-.09-.2v-3.8a.85.85,0,0,1,.56-.7l2-1.1a.55.55,0,0,1,.37-.1.21.21,0,0,1,.19.2v3.8a.85.85,0,0,1-.56.7l-2,1.1C1197,264.81,1196.91,264.91,1196.73,264.91Zm2.13-5-1.3.7V264l1.3-.7Z"/><path class="cls-44" d="M1201.82,262.31l-.92.5v-3.2l-.37.2v-.1l.46-1.5.83-.4v4.5"/><path class="cls-44" d="M1202.84,261.71c-.09,0-.09,0-.18-.1s-.1-.1-.1-.2v-3.7c0-.3.19-.5.56-.7l2-1.1a.5.5,0,0,1,.37-.1.21.21,0,0,1,.19.2v3.8a.85.85,0,0,1-.56.7l-2,1.1A.94.94,0,0,1,1202.84,261.71Zm2-5-1.3.7v3.4l1.3-.7Z"/><path class="cls-44" d="M1206.83,259.61c-.1,0-.1,0-.19-.1s-.09-.1-.09-.2v-3.8a.85.85,0,0,1,.56-.7l2-1.1a.55.55,0,0,1,.37-.1.21.21,0,0,1,.19.2v3.8a.85.85,0,0,1-.56.7l-2,1.1C1207.11,259.51,1207,259.61,1206.83,259.61Zm2-5-1.3.7v3.4l1.3-.7Z"/><path class="cls-44" d="M1129.08,307.91l-.92.5v-3.2l-.37.2v-.1l.46-1.5.83-.4v4.5"/><path class="cls-44" d="M1130.1,307.21c-.09,0-.09,0-.18-.1s-.1-.1-.1-.2v-3.8a.85.85,0,0,1,.56-.7l2-1.1a.5.5,0,0,1,.37-.1.2.2,0,0,1,.18.2v3.8c0,.3-.18.5-.55.7l-2,1.1C1130.38,307.21,1130.19,307.21,1130.1,307.21Zm2-5-1.3.7v3.4l1.3-.7Z"/><path class="cls-44" d="M1134.09,305.11c-.1,0-.1,0-.19-.1s-.09-.1-.09-.2V301a.85.85,0,0,1,.55-.7l2-1.1a.55.55,0,0,1,.37-.1.21.21,0,0,1,.19.2v3.8a.85.85,0,0,1-.56.7l-2,1.1C1134.36,305.11,1134.18,305.11,1134.09,305.11Zm2-5-1.29.7v3.4l1.29-.7Z"/><path class="cls-44" d="M1139.09,302.61l-.93.5v-3.2l-.37.2V300l.47-1.5.83-.4v4.5"/><path class="cls-44" d="M1148.91,297.21a.2.2,0,0,1-.18-.2v-3.8a.85.85,0,0,1,.55-.7l2-1.1a.5.5,0,0,1,.37-.1.21.21,0,0,1,.19.2v3.8a.85.85,0,0,1-.56.7l-2,1.1C1149.19,297.21,1149.1,297.21,1148.91,297.21Zm2.13-5-1.29.7v3.4l1.29-.7Z"/><path class="cls-44" d="M1153.92,294.71l-.93.5V292l-.37.2v-.1l.46-1.5.84-.4v4.5"/><path class="cls-44" d="M1154.94,294.11c-.1,0-.1,0-.19-.1s-.09-.1,0-.2V290a.85.85,0,0,1,.56-.7l2-1.1a.58.58,0,0,1,.38-.1.2.2,0,0,1,.18.2v3.8a.85.85,0,0,1-.56.7l-2,1.1C1155.21,294,1155.12,294,1154.94,294.11Zm2-5.1-1.2.7v3.4l1.3-.7V289Z"/><path class="cls-44" d="M1158.92,291.91c-.09,0-.09,0-.19-.1s-.09-.1-.09-.2v-3.8a.85.85,0,0,1,.56-.7l2-1.1a.5.5,0,0,1,.37-.1.2.2,0,0,1,.18.2v3.8a.85.85,0,0,1-.55.7l-2,1.1C1159.2,291.91,1159.11,291.91,1158.92,291.91Zm2.13-5-1.3.7V291l1.3-.7Z"/><path class="cls-44" d="M1174.49,283.91c-.09,0-.09,0-.19-.1s-.09-.1-.09-.2v-3.8a.85.85,0,0,1,.56-.7l2-1.1a.55.55,0,0,1,.37-.1.21.21,0,0,1,.19.2v3.8a.85.85,0,0,1-.56.7l-2,1.1C1174.77,283.81,1174.67,283.91,1174.49,283.91Zm2-5-1.3.7V283l1.3-.7Z"/><path class="cls-44" d="M1178.56,281.81c-.09,0-.09,0-.18-.1s-.09-.1,0-.2v-3.8a.85.85,0,0,1,.56-.7l2-1.1a.55.55,0,0,1,.37-.1.21.21,0,0,1,.19.2v3.8a.85.85,0,0,1-.56.7l-2,1.2C1178.84,281.71,1178.66,281.81,1178.56,281.81Zm2-5-1.29.7v3.4l1.29-.7Z"/><path class="cls-44" d="M1182.55,279.71c-.09,0-.09,0-.19-.1s-.09-.1,0-.2v-3.7a.85.85,0,0,1,.56-.7l2-1.1a.5.5,0,0,1,.37-.1.2.2,0,0,1,.18.2v3.7a.84.84,0,0,1-.55.7l-2,1.1C1182.83,279.61,1182.73,279.61,1182.55,279.71Zm2-5.1h0l-1.3.7v3.4l1.3-.7Z"/><path class="cls-44" d="M1190.61,275.41c-.09,0-.09,0-.18-.1s-.1-.1-.1-.2v-3.8a.85.85,0,0,1,.56-.7l2-1.1a.5.5,0,0,1,.37-.1.2.2,0,0,1,.18.2v3.8a.84.84,0,0,1-.55.7l-2,1.1C1190.89,275.41,1190.7,275.41,1190.61,275.41Zm2-5-1.3.7v3.4l1.3-.7Z"/><path class="cls-44" d="M1194.6,273.31c-.1,0-.1,0-.19-.1s-.09-.1-.09-.2v-3.8a.85.85,0,0,1,.55-.7l2-1.1a.55.55,0,0,1,.37-.1.21.21,0,0,1,.19.2v3.8a.85.85,0,0,1-.56.7l-2,1.1C1194.87,273.21,1194.78,273.31,1194.6,273.31Zm2.13-5-1.3.7v3.4l1.3-.7Z"/><path class="cls-44" d="M1199.6,270.71l-.93.5V268l-.37.2v-.1l.47-1.5.83-.4v4.5"/><path class="cls-44" d="M1200.71,270.11c-.09,0-.09,0-.18-.1s-.1-.1-.1-.2V266a.85.85,0,0,1,.56-.7l2-1.1a.5.5,0,0,1,.37-.1.2.2,0,0,1,.18.2v3.8a.84.84,0,0,1-.55.7l-2,1.1C1200.9,270.11,1200.8,270.11,1200.71,270.11Zm2-5-1.3.7v3.4l1.3-.7Z"/><path class="cls-44" d="M1205.72,267.51l-.93.5v-3.2l-.37.2v-.1l.46-1.5.84-.4v4.5"/><path class="cls-44" d="M1206.73,266.91c-.09,0-.09,0-.18-.1s-.09-.1-.09-.2v-3.8c0-.3.18-.5.55-.7l2-1.1a.5.5,0,0,1,.37-.1.21.21,0,0,1,.19.2v3.8a.85.85,0,0,1-.56.7l-2,1.1C1207,266.91,1206.83,266.91,1206.73,266.91Zm2-5-1.29.7V266l1.29-.7Z"/><path class="cls-44" d="M1211.74,264.41l-.93.5v-3.2l-.37.2v-.2l.46-1.5.84-.4v4.6"/><path class="cls-44" d="M1128.06,315.61c-.09,0-.09,0-.18-.1s-.09-.1-.09-.2v-3.8a.84.84,0,0,1,.55-.7l2-1.1a.5.5,0,0,1,.37-.1.21.21,0,0,1,.19.2v3.8a.85.85,0,0,1-.56.7l-2,1.1C1128.34,315.51,1128.16,315.61,1128.06,315.61Zm2-5.1-1.3.7v3.5l1.3-.7Z"/><path class="cls-44" d="M1133.07,313l-.93.5v-3.2l-.37.2v-.1l.46-1.5.84-.4V313"/><path class="cls-44" d="M1149.93,304.11l-.92.5v-3.2l-.38.2v-.1l.47-1.5.83-.4v4.5"/><path class="cls-44" d="M1151,303.41c-.09,0-.09,0-.18-.1s-.1-.1,0-.2v-3.8a.84.84,0,0,1,.55-.7l2-1.1a.5.5,0,0,1,.37-.1.21.21,0,0,1,.19.2v3.8a.85.85,0,0,1-.56.7l-2,1.1A.36.36,0,0,1,1151,303.41Zm2-5-1.3.7v3.4l1.3-.7Z"/><path class="cls-44" d="M1156,300.91l-.93.5v-3.2l-.37.2v-.1l.46-1.5.84-.4v4.5"/><path class="cls-44" d="M1157,300.31c-.09,0-.09,0-.18-.1s-.09-.1,0-.2v-3.8a.85.85,0,0,1,.55-.7l2-1.1a.55.55,0,0,1,.37-.1.21.21,0,0,1,.19.2v3.8a.85.85,0,0,1-.56.7l-2,1.1C1157.25,300.21,1157.07,300.21,1157,300.31Zm2-5.1-1.29.7v3.4l1.29-.7Z"/><path class="cls-44" d="M1162,297.71l-.93.5V295l-.37.2v-.1l.46-1.5.84-.4v4.5"/><path class="cls-44" d="M1175.51,290.71l-.93.5V288l-.37.2v-.1l.46-1.5.84-.4v4.5"/><path class="cls-44" d="M1176.62,290.11c-.09,0-.09,0-.19-.1s-.09-.1-.09-.2V286a.85.85,0,0,1,.56-.7l2-1.1a.5.5,0,0,1,.37-.1.2.2,0,0,1,.18.2v3.8a.85.85,0,0,1-.55.7l-2,1.1C1176.9,290,1176.71,290.11,1176.62,290.11Zm2-5.1-1.3.7v3.4l1.3-.7Z"/><path class="cls-44" d="M1181.62,287.51l-.92.5v-3.2l-.37.2v-.1l.46-1.5.83-.4v4.5"/><path class="cls-44" d="M1182.64,286.91c-.09,0-.09,0-.18-.1s-.1-.1-.1-.2v-3.8a.85.85,0,0,1,.56-.7l2-1.1a.5.5,0,0,1,.37-.1.2.2,0,0,1,.18.2v3.8a.84.84,0,0,1-.55.7l-2,1.1C1182.92,286.81,1182.73,286.91,1182.64,286.91Zm2-5-1.3.7V286l1.3-.7Z"/><path class="cls-44" d="M1190.61,282.71a.2.2,0,0,1-.18-.2v-3.8a.84.84,0,0,1,.55-.7l2-1.1a.5.5,0,0,1,.37-.1.21.21,0,0,1,.19.2v3.7a.85.85,0,0,1-.56.7l-2,1.1C1190.89,282.61,1190.8,282.61,1190.61,282.71Zm2.13-5.1h0l-1.29.7v3.4l1.29-.7Z"/><path class="cls-44" d="M1195.62,280.11l-.93.5v-3.2l-.37.2v-.1l.46-1.5.84-.4v4.5"/><path class="cls-44" d="M1196.73,279.51c-.1,0-.1,0-.19-.1s-.09-.1-.09-.2v-3.8a.85.85,0,0,1,.56-.7l2-1.1a.55.55,0,0,1,.37-.1.21.21,0,0,1,.19.2v3.8a.85.85,0,0,1-.56.7l-2,1.1C1197,279.41,1196.82,279.51,1196.73,279.51Zm2-5.1-1.3.7v3.4l1.3-.7Z"/><path class="cls-44" d="M1201.73,276.91l-.93.5v-3.2l-.37.2v-.1l.47-1.5.83-.4v4.5"/><path class="cls-44" d="M1202.75,276.31c-.09,0-.09,0-.19-.1s-.09-.1-.09-.2v-3.8a.85.85,0,0,1,.56-.7l2-1.1a.5.5,0,0,1,.37-.1.2.2,0,0,1,.18.2v3.8a.85.85,0,0,1-.55.7l-2,1.1A.36.36,0,0,1,1202.75,276.31Zm2-5-1.3.7v3.4l1.3-.7Z"/><path class="cls-44" d="M1207.75,273.71l-.92.5V271l-.37.2v-.1l.46-1.5.83-.4v4.5"/><path class="cls-44" d="M1208.77,273.11c-.09,0-.09,0-.18-.1s-.09-.1-.09-.2V269c0-.3.18-.5.55-.7l2-1.1a.5.5,0,0,1,.37-.1.21.21,0,0,1,.19.2v3.8c0,.3-.19.5-.56.7l-2,1.1C1209.05,273,1209,273.11,1208.77,273.11Zm2-5-1.3.6v3.4l1.3-.7Z"/><path class="cls-44" d="M1129.08,322.41l-.92.5v-3.2l-.37.2v-.1l.46-1.5.83-.4v4.5"/><path class="cls-44" d="M1130.1,321.81c-.09,0-.09,0-.18-.1s-.1-.1,0-.2v-3.8c0-.3.18-.5.55-.7l2-1.1a.5.5,0,0,1,.37-.1.21.21,0,0,1,.19.2v3.8a.85.85,0,0,1-.56.7l-2,1.1A.75.75,0,0,1,1130.1,321.81Zm2-5.1-1.3.7v3.4l1.3-.7Z"/><path class="cls-44" d="M1135.11,319.21l-.93.5v-3.2l-.37.2v-.1l.46-1.5.84-.4v4.5"/><path class="cls-44" d="M1136.12,318.61c-.09,0-.09,0-.18-.1s-.09-.1,0-.2v-3.8a.85.85,0,0,1,.56-.7l2-1.1a.55.55,0,0,1,.37-.1.21.21,0,0,1,.19.2v3.8a.85.85,0,0,1-.56.7l-2,1.1A.78.78,0,0,1,1136.12,318.61Zm2-5h0l-1.29.7v3.4l1.29-.7Z"/><path class="cls-44" d="M1141.13,316l-.93.5v-3.2l-.37.2v-.1l.46-1.5.84-.4V316"/><path class="cls-44" d="M1142.15,315.41c-.09,0-.09,0-.19-.1s-.09-.1,0-.2v-3.8a.85.85,0,0,1,.56-.7l2-1.1a.5.5,0,0,1,.37-.1.2.2,0,0,1,.18.2v3.8a.84.84,0,0,1-.55.7l-2,1.1C1142.33,315.31,1142.24,315.41,1142.15,315.41Zm2-5-1.3.7v3.4l1.3-.7Z"/><path class="cls-44" d="M1148.26,312.11c-.09,0-.09,0-.18-.1s-.09-.1-.09-.2V308a.84.84,0,0,1,.55-.7l2-1.1a.5.5,0,0,1,.37-.1.21.21,0,0,1,.19.2v3.8a.85.85,0,0,1-.56.7l-2,1.1C1148.54,312.11,1148.36,312.11,1148.26,312.11Zm2-5-1.29.7v3.4l1.29-.7Z"/><path class="cls-44" d="M1152.25,310c-.09,0-.09,0-.19-.1s-.09-.1,0-.2v-3.8a.85.85,0,0,1,.56-.7l2-1.1a.5.5,0,0,1,.37-.1.2.2,0,0,1,.18.2V308a.84.84,0,0,1-.55.7l-2,1.1C1152.53,310,1152.43,310,1152.25,310Zm2-5-1.3.7v3.4l1.3-.7Z"/><path class="cls-44" d="M1156.23,307.91c-.09,0-.09,0-.18-.1s-.09-.1,0-.2v-3.8a.85.85,0,0,1,.55-.7l2-1.1a.5.5,0,0,1,.37-.1.21.21,0,0,1,.19.2v3.8a.85.85,0,0,1-.56.7l-2,1.1A.45.45,0,0,1,1156.23,307.91Zm2.13-5-1.29.7V307l1.29-.7Z"/><path class="cls-44" d="M1160.59,305.81c-.09,0-.09,0-.19-.1s-.09-.1-.09-.2v-3.8a.85.85,0,0,1,.56-.7l2-1.1a.58.58,0,0,1,.38-.1.2.2,0,0,1,.18.2v3.8a.85.85,0,0,1-.56.7l-2,1.1C1160.87,305.71,1160.68,305.81,1160.59,305.81Zm2-5-1.3.7v3.4l1.3-.7Z"/><path class="cls-44" d="M1172.54,299.51c-.09,0-.09,0-.18-.1s-.1-.1-.1-.2v-3.8a.85.85,0,0,1,.56-.7l2-1.1a.5.5,0,0,1,.37-.1.2.2,0,0,1,.18.2v3.8a.84.84,0,0,1-.55.7l-2,1.1C1172.82,299.41,1172.63,299.51,1172.54,299.51Zm2-5.1-1.3.7v3.4l1.3-.7Z"/><path class="cls-44" d="M1176.53,297.41c-.1,0-.1,0-.19-.1s-.09-.1,0-.2v-3.8a.85.85,0,0,1,.56-.7l2-1.1a.5.5,0,0,1,.37-.1.2.2,0,0,1,.18.2v3.8a.85.85,0,0,1-.55.7l-2,1.1C1176.8,297.31,1176.71,297.31,1176.53,297.41Zm2.13-5.1-1.3.7v3.4l1.3-.7Z"/><path class="cls-44" d="M1180.6,295.21c-.09,0-.09,0-.18-.1s-.09-.1,0-.2v-3.8a.85.85,0,0,1,.55-.7l2-1.1a.55.55,0,0,1,.37-.1.21.21,0,0,1,.19.2v3.8a.85.85,0,0,1-.56.7l-2,1.1A.36.36,0,0,1,1180.6,295.21Zm2-5-1.3.7v3.4l1.3-.7Z"/><path class="cls-44" d="M1185.61,292.71l-.93.5V290l-.37.2v-.1l.46-1.5.84-.4v4.5"/><path class="cls-44" d="M1191.63,289.51l-.93.5v-3.3l-.37.2v-.1l.47-1.5.83-.4v4.6"/><path class="cls-44" d="M1193.67,288.41l-.93.5v-3.2l-.37.2v-.1l.47-1.5.83-.4v4.5"/><path class="cls-44" d="M1194.69,287.81c-.09,0-.09,0-.19-.1s-.09-.1,0-.2v-3.8a.85.85,0,0,1,.56-.7l2-1.1a.5.5,0,0,1,.37-.1.2.2,0,0,1,.18.2v3.8a.84.84,0,0,1-.55.7l-2,1.1A.45.45,0,0,1,1194.69,287.81Zm2-5-1.3.7v3.4l1.3-.7Z"/><path class="cls-44" d="M1199.69,285.21l-.92.5v-3.2l-.38.2v-.1l.47-1.5.83-.4v4.5"/><path class="cls-44" d="M1200.71,284.61c-.09,0-.09,0-.18-.1s-.1-.1,0-.2v-3.8a.84.84,0,0,1,.55-.7l2-1.1a.5.5,0,0,1,.37-.1.21.21,0,0,1,.19.2v3.9a.85.85,0,0,1-.56.7l-2,1.1C1201,284.51,1200.9,284.61,1200.71,284.61Zm2.13-5-1.29.7v3.4l1.29-.7Z"/><path class="cls-44" d="M1204.79,282.51c-.09,0-.09,0-.19-.1s-.09-.1,0-.2v-3.8a.85.85,0,0,1,.56-.7l2-1.1a.5.5,0,0,1,.37-.1.2.2,0,0,1,.18.2v3.8a.84.84,0,0,1-.55.7l-2,1.1A.75.75,0,0,1,1204.79,282.51Zm2-5-1.3.7v3.4l1.3-.7Z"/><path class="cls-44" d="M1208.77,280.41c-.09,0-.09,0-.18-.1s-.09-.1,0-.2v-3.8a.85.85,0,0,1,.55-.7l2-1.1a.55.55,0,0,1,.37-.1.21.21,0,0,1,.19.2v3.8a.85.85,0,0,1-.56.7l-2,1.1C1209.05,280.31,1209,280.31,1208.77,280.41Zm2-5.1-1.3.7v3.4l1.3-.7Z"/><path class="cls-44" d="M1129.08,329.71l-.92.5V327l-.37.2v-.1l.46-1.5.83-.4v4.5"/><path class="cls-44" d="M1130.1,329c-.09,0-.09,0-.18-.1s-.1-.1-.1-.2v-3.8a.85.85,0,0,1,.56-.7l2-1.1a.5.5,0,0,1,.37-.1.2.2,0,0,1,.18.2V327a.84.84,0,0,1-.55.7l-2,1.1C1130.38,329,1130.19,329,1130.1,329Zm2-5-1.3.7v3.4l1.3-.7Z"/><path class="cls-44" d="M1134.09,326.91c-.1,0-.1,0-.19-.1s-.09-.1,0-.2v-3.8a.85.85,0,0,1,.56-.7l2-1.1a.5.5,0,0,1,.37-.1.2.2,0,0,1,.18.2v3.8a.85.85,0,0,1-.55.7l-2,1.1A.36.36,0,0,1,1134.09,326.91Zm2-5-1.29.7V326l1.29-.7Z"/><path class="cls-44" d="M1149.19,319l-.93.5v-3.2l-.37.2v-.1l.47-1.5.83-.4V319"/><path class="cls-44" d="M1150.21,318.41c-.09,0-.09,0-.19-.1s-.09-.1,0-.2v-3.8a.85.85,0,0,1,.56-.7l2-1.1a.5.5,0,0,1,.37-.1.21.21,0,0,1,.19.2v3.8a.85.85,0,0,1-.56.7l-2,1.1C1150.49,318.31,1150.4,318.31,1150.21,318.41Zm2.13-5.1-1.3.7v3.4l1.3-.7Z"/><path class="cls-44" d="M1155.21,315.81l-.92.5v-3.2l-.37.2v-.1l.46-1.5.83-.4v4.5"/><path class="cls-44" d="M1156.23,315.21c-.09,0-.09,0-.18-.1s-.09-.1-.09-.2v-3.8a.84.84,0,0,1,.55-.7l2-1.1a.5.5,0,0,1,.37-.1.21.21,0,0,1,.19.2v3.8a.85.85,0,0,1-.56.7l-2,1.1C1156.51,315.11,1156.42,315.21,1156.23,315.21Zm2.13-5.1-1.29.7v3.4l1.29-.7Z"/><path class="cls-44" d="M1161.24,312.61l-.93.5v-3.2l-.37.2V310l.46-1.5.84-.4v4.5"/><path class="cls-44" d="M1173.56,306.31l-.93.5v-3.2l-.37.2v-.1l.47-1.5.83-.4v4.5"/><path class="cls-44" d="M1174.58,305.71c-.09,0-.09,0-.18-.1s-.1-.1-.1-.2v-3.7a.85.85,0,0,1,.56-.7l2-1.1a.5.5,0,0,1,.37-.1.2.2,0,0,1,.18.2v3.7a.85.85,0,0,1-.55.7l-2,1.1C1174.86,305.61,1174.67,305.71,1174.58,305.71Zm2-5.1-1.3.7v3.4l1.3-.7Z"/><path class="cls-44" d="M1178.56,303.61c-.09,0-.09,0-.18-.1s-.09-.1-.09-.2v-3.8a.84.84,0,0,1,.55-.7l2-1.1a.5.5,0,0,1,.37-.1.21.21,0,0,1,.19.2v3.8a.85.85,0,0,1-.56.7l-2,1.1C1178.84,303.51,1178.75,303.51,1178.56,303.61Zm2-5.1-1.29.7v3.4l1.29-.7Z"/><path class="cls-44" d="M1182.64,301.41c-.09,0-.09,0-.18-.1s-.1-.1-.1-.2v-3.8a.85.85,0,0,1,.56-.7l2-1.1a.5.5,0,0,1,.37-.1.2.2,0,0,1,.18.2v3.8a.84.84,0,0,1-.55.7l-2,1.1C1182.92,301.41,1182.73,301.41,1182.64,301.41Zm2-5-1.3.7v3.4l1.3-.7Z"/><path class="cls-44" d="M1191.63,296.71l-.93.5V294l-.37.2v-.1l.47-1.5.83-.4v4.5"/><path class="cls-44" d="M1192.65,296.11c-.09,0-.09,0-.19-.1s-.09-.1,0-.2V292a.85.85,0,0,1,.56-.7l2-1.1a.5.5,0,0,1,.37-.1.21.21,0,0,1,.19.2v3.8a.85.85,0,0,1-.56.7l-2,1.1C1192.93,296.11,1192.84,296.11,1192.65,296.11Zm2.13-5-1.3.7v3.4l1.3-.7Z"/><path class="cls-44" d="M1196.73,294c-.1,0-.1,0-.19-.1s-.09-.1-.09-.2v-3.8a.85.85,0,0,1,.56-.7l2-1.1a.55.55,0,0,1,.37-.1.21.21,0,0,1,.19.2V292a.85.85,0,0,1-.56.7l-2,1.1C1197,293.91,1196.82,294,1196.73,294Zm2-5-1.3.7v3.4l1.3-.7Z"/><path class="cls-44" d="M1200.71,291.91c-.09,0-.09,0-.18-.1s-.1-.1,0-.2v-3.8a.84.84,0,0,1,.55-.7l2-1.1a.5.5,0,0,1,.37-.1.21.21,0,0,1,.19.2v3.8a.85.85,0,0,1-.56.7l-2,1.1A.45.45,0,0,1,1200.71,291.91Zm2-5-1.3.7V291l1.3-.7Z"/><path class="cls-44" d="M1205.72,289.31l-.93.5v-3.2l-.37.2v-.1l.46-1.5.84-.4v4.5"/><path class="cls-44" d="M1206.73,288.71c-.09,0-.09,0-.18-.1s-.09-.1,0-.2v-3.7a.85.85,0,0,1,.56-.7l2-1.1a.55.55,0,0,1,.37-.1.21.21,0,0,1,.19.2v3.8a.85.85,0,0,1-.56.7l-2,1.1C1207,288.61,1206.92,288.71,1206.73,288.71Zm2.14-5-1.3.7v3.4l1.3-.7Z"/><path class="cls-44" d="M1129.08,336.91l-.92.5v-3.2l-.37.2v-.1l.46-1.5.83-.4v4.5"/><path class="cls-44" d="M1131,335.91l-.93.5v-3.2l-.37.2v-.1l.56-1.5.83-.4v4.5"/><path class="cls-44" d="M1132.05,335.21c-.09,0-.09,0-.19-.1s-.09-.1-.09-.2v-3.8a.85.85,0,0,1,.56-.7l2-1.1a.58.58,0,0,1,.38-.1.2.2,0,0,1,.18.2v3.8a.85.85,0,0,1-.56.7l-2,1.1C1132.33,335.21,1132.23,335.21,1132.05,335.21Zm2.13-5-1.3.7v3.4l1.3-.7Z"/><path class="cls-44" d="M1136.12,333.11c-.09,0-.09,0-.18-.1s-.09-.1-.09-.2V329a.84.84,0,0,1,.55-.7l2-1.1a.5.5,0,0,1,.37-.1.21.21,0,0,1,.19.2v3.8a.85.85,0,0,1-.56.7l-2,1.1C1136.4,333.11,1136.22,333.11,1136.12,333.11Zm2-5-1.29.7v3.4l1.29-.7Z"/><path class="cls-44" d="M1140.11,331c-.09,0-.09,0-.19-.1s-.09-.1,0-.2v-3.8c0-.3.19-.5.56-.7l2-1.1a.5.5,0,0,1,.37-.1.2.2,0,0,1,.18.2V329c0,.3-.18.5-.55.7l-2,1.1A.75.75,0,0,1,1140.11,331Zm2-5-1.3.7v3.4l1.3-.7Z"/><path class="cls-44" d="M1145.11,328.41l-.92.5v-3.2l-.37.2v-.1l.46-1.5.83-.4v4.5"/><path class="cls-44" d="M1151.23,325.21l-.93.5v-3.2l-.37.2v-.1l.47-1.5.83-.4v4.5"/><path class="cls-44" d="M1152.25,324.61c-.09,0-.09,0-.19-.1s-.09-.1,0-.2v-3.8a.85.85,0,0,1,.56-.7l2-1.1a.5.5,0,0,1,.37-.1.2.2,0,0,1,.18.2v3.8a.84.84,0,0,1-.55.7l-2,1.1C1152.53,324.51,1152.43,324.51,1152.25,324.61Zm2-5.1-1.3.7v3.4l1.3-.7Z"/><path class="cls-44" d="M1156.23,322.41c-.09,0-.09,0-.18-.1s-.09-.1,0-.2v-3.8a.85.85,0,0,1,.55-.7l2-1.1a.5.5,0,0,1,.37-.1.21.21,0,0,1,.19.2v3.8a.85.85,0,0,1-.56.7l-2,1.1C1156.51,322.41,1156.42,322.41,1156.23,322.41Zm2.13-5-1.29.7v3.4l1.29-.7Z"/><path class="cls-44" d="M1161.24,319.91l-.93.5v-3.2l-.37.2v-.1l.46-1.5.84-.4v4.5"/><path class="cls-44" d="M1175.51,312.51l-.93.5v-3.2l-.37.2v-.1l.56-1.5.83-.4v4.5"/><path class="cls-44" d="M1176.53,311.91c-.1,0-.1,0-.19-.1s-.09-.1,0-.2v-3.8a.85.85,0,0,1,.56-.7l2-1.1a.5.5,0,0,1,.37-.1.2.2,0,0,1,.18.2v3.8a.85.85,0,0,1-.55.7l-2,1.1A.49.49,0,0,1,1176.53,311.91Zm2-5-1.29.7V311l1.29-.7Z"/><path class="cls-44" d="M1181.53,309.31l-.93.5v-3.2l-.37.2v-.1l.47-1.5.83-.4v4.5"/><path class="cls-44" d="M1182.55,308.71a.21.21,0,0,1-.19-.2v-3.8a.85.85,0,0,1,.56-.7l2-1.1a.5.5,0,0,1,.37-.1.2.2,0,0,1,.18.2v3.8a.84.84,0,0,1-.55.7l-2,1.1C1182.83,308.71,1182.73,308.71,1182.55,308.71Zm2.13-5-1.3.7v3.4l1.3-.7Z"/><path class="cls-44" d="M1191.63,304l-.93.5v-3.2l-.37.2v-.1l.47-1.5.83-.4V304"/><path class="cls-44" d="M1193.67,302.91l-.93.5v-3.2l-.37.2v-.1l.47-1.5.83-.4v4.5"/><path class="cls-44" d="M1194.69,302.31c-.09,0-.09,0-.19-.1s-.09-.1-.09-.2v-3.8a.85.85,0,0,1,.56-.7l2-1.1a.5.5,0,0,1,.37-.1.2.2,0,0,1,.18.2v3.8a.85.85,0,0,1-.55.7l-2,1.1C1195,302.31,1194.87,302.31,1194.69,302.31Zm2.13-5-1.3.7v3.4l1.3-.7Z"/><path class="cls-44" d="M1199.69,299.71l-.92.5V297l-.38.2v-.1l.47-1.5.83-.4v4.5"/><path class="cls-44" d="M1200.8,299.11c-.09,0-.09,0-.18-.1s-.09-.1,0-.2V295a.85.85,0,0,1,.55-.7l2-1.1a.55.55,0,0,1,.37-.1.21.21,0,0,1,.19.2v3.8a.85.85,0,0,1-.56.7l-2,1.1A.34.34,0,0,1,1200.8,299.11Zm2-5-1.29.7v3.4l1.29-.7Z"/><path class="cls-44" d="M1204.79,297c-.09,0-.09,0-.19-.1s-.09-.1,0-.2v-3.8a.85.85,0,0,1,.56-.7l2-1.1a.5.5,0,0,1,.37-.1.2.2,0,0,1,.18.2V295a.84.84,0,0,1-.55.7l-2,1.1A.45.45,0,0,1,1204.79,297Zm2-5-1.3.7v3.4l1.3-.7Z"/><path class="cls-44" d="M1209.79,294.41l-.92.5v-3.2l-.37.2v-.1l.46-1.5.83-.4v4.5"/><path class="cls-45" d="M1195,181.61h0l-.37-.1v-5.1l.37-.5,10.75-5.7.37.1v.8l1.94-1,.37.1V173l-.37.5-1.94,1v.8l-.37.5L1195,181.6Zm10.37-10.6-10.1,5.3v4.5l10.1-5.3v-.8l.38-.5,1.94-1V171l-1.94,1-.38-.1Z"/><path class="cls-45" d="M1128.62,216.71V211l2.13-1.1v5.7l-2.13,1.1"/><path class="cls-45" d="M1132.05,214.91v-4.2l2.13-1.1v4.2l-2.13,1.1"/><path class="cls-45" d="M1135.48,213.11v-1.9l2.13-1.1V212l-2.13,1.1"/><path class="cls-45" d="M1146.6,206.41h-.19c-.37-.1-.37-.6,0-1.1a1.51,1.51,0,0,1,1-.7h.19c.37.1.37.6,0,1.1a1.27,1.27,0,0,1-1,.7"/><path class="cls-45" d="M1144.74,205.61h-.09c-.19-.1-.19-.4,0-.6,1.11-1.5,2.78-2.6,4.08-2.6a1.46,1.46,0,0,1,.65.1c.18.1.18.4,0,.6l-.37.3-.38.1a.74.74,0,0,0-.46-.1,4.18,4.18,0,0,0-2.87,1.8.51.51,0,0,1-.56.4"/><path class="cls-45" d="M1143.26,205.11h-.09c-.19-.1-.19-.4,0-.6a12,12,0,0,1,3.8-3.5,6.47,6.47,0,0,1,2.68-.8,4.7,4.7,0,0,1,1.12.2c.18.1.18.4,0,.6l-.37.3-.38.1a1.2,1.2,0,0,0-.83-.1c-1.67,0-4,1.4-5.37,3.5a1.45,1.45,0,0,1-.56.3"/><path class="cls-45" d="M1196,179.91v-3.4l2.22-1.2v3.4l-2.22,1.2"/><path class="cls-1" d="M1220,375.13l51,43.3,28-18.2-39.11-27.9-16.12-1.5,29,26.1-35.39-19.2-17.42-2.6"/><path class="cls-46" d="M1408.09,310.91l-26.41,13.9-26.41-13.9,26.41-13.9,26.41,13.9"/><path class="cls-1" d="M1381.64,325.08v71.7l26.41-13.9V311.19l-26.41,13.89"/><g class="cls-47"><path class="cls-48" d="M1381.64,325.08v71.7l26.41-13.9V311.19l-26.41,13.89"/></g><path class="cls-1" d="M1355,311.19l26.41,13.89v71.7L1355,382.88V311.19"/><g class="cls-49"><path class="cls-50" d="M1355,311.19l26.41,13.89v71.7L1355,382.88V311.19"/></g><path class="cls-51" d="M1372.6,348l-26.5,14-26.41-13.9,26.41-14,26.5,13.9"/><path class="cls-1" d="M1372.57,401V348.2l-26.41,13.9v52.7l26.41-13.8"/><g class="cls-52"><path class="cls-53" d="M1372.57,401V348.2l-26.41,13.9v52.7l26.41-13.8"/></g><path class="cls-1" d="M1319.64,348.22V401l26.41,13.9V362.2l-26.41-14"/><g class="cls-54"><path class="cls-55" d="M1319.64,348.22V401l26.41,13.9V362.2l-26.41-14"/></g><path class="cls-1" d="M1337.26,385.56v33.7l-26.41,13.9v-33.8l26.41-13.8"/><g class="cls-56"><path class="cls-57" d="M1337.26,385.56v33.7l-26.41,13.9v-33.8l26.41-13.8"/></g><path class="cls-1" d="M1284.23,385.56l26.41,13.9v33.8l-26.41-13.9v-33.8"/><g class="cls-58"><path class="cls-59" d="M1284.23,385.56l26.41,13.9v33.8l-26.41-13.9v-33.8"/></g><path class="cls-60" d="M1337.21,385.21l-26.41,13.9-26.41-13.9,26.41-13.9,26.41,13.9"/><path class="cls-61" d="M1219.52,280.91s-4.91.5-6.48,1.4-5.29,4.8-4.82,5.5,2,.8,3.33,0,2.88-2.5,3.34-2.7c1.39-.5,4.26.5,6.39-1.2s-1.76-3-1.76-3"/><path class="cls-62" d="M1220.91,372.41l.19-.1a8.15,8.15,0,0,1,7.13.3l7.51,3.9h1.57v1.9h0a2.39,2.39,0,0,1-1.57,2.1,9,9,0,0,1-7.51,0l-7.13-4.3a2.21,2.21,0,0,1-1.49-1.8h0l.28-1.9,1-.1"/><path class="cls-63" d="M1221.1,374.31l7.13,4.3a9,9,0,0,0,7.51,0,2.78,2.78,0,0,0,1.27-3.72,2.54,2.54,0,0,0-.16-.28,2.82,2.82,0,0,0-1.11-1,72.92,72.92,0,0,0-7.88-3.5c-3.43-1-5.47-.3-6.76.4a2.1,2.1,0,0,0-.93,2.83l.09.17c.1.4.47.6.84.8"/><path class="cls-62" d="M1243.52,366.91l.19-.1a8.15,8.15,0,0,1,7.13.3l7.51,3.9h1.57v1.9h0a2.39,2.39,0,0,1-1.57,2.1,9,9,0,0,1-7.51,0l-7.13-4.3a2.21,2.21,0,0,1-1.49-1.8h0l.28-1.9,1-.1"/><path class="cls-63" d="M1243.8,368.91l7.14,4.3a8.94,8.94,0,0,0,7.5,0,2.78,2.78,0,0,0,1.27-3.72,2.54,2.54,0,0,0-.16-.28,2.68,2.68,0,0,0-1.11-1,72.92,72.92,0,0,0-7.88-3.5c-3.42-1-5.46-.3-6.76.4a2.11,2.11,0,0,0-.92,2.84l.09.16a1.39,1.39,0,0,0,.83.8"/><path class="cls-64" d="M1259.83,370.31c0,1.3-2.41,2-3.8,2.3-2.41.4-6.86-.4-7.5-2.7-.65-2-1.3-4.8-1.67-5.8-1.39-5.8-3.62-20.1-5-32.6a13.55,13.55,0,0,1-.18-1.8c-.19.4-.28.8-.46,1.3-4.27,12.4-4.17,39-4.45,42.3v.5l-.09.5c-.65,2.2-5.29,2.1-6.31,2a6.72,6.72,0,0,1-2.78-.7,2.87,2.87,0,0,1-1.39-1.4,368.91,368.91,0,0,1-2.59-50.5,167.43,167.43,0,0,1,1.2-17.9,3.13,3.13,0,0,0,.1-.6,73.5,73.5,0,0,1,12.69,1.9c.28-1.8,1.11.3,1.11.3l18.91-1.9h.46v.1a4.58,4.58,0,0,0,.09.9c0,.7.1,1.7.1,3,0,2.2.09,5.5,0,9.5-.19,6.3-3.8,22.3,1.57,51.3"/><path class="cls-1" d="M1180,251.58l-.19.3.19-.3"/><g class="cls-65"><path class="cls-66" d="M1180,251.58l-.19.3.19-.3"/></g><path class="cls-67" d="M1230.64,320.71a18,18,0,0,1-3.15-1.3c-3.8-2-6.3-4.6-6.11-7.2,0,0,.37-6.9.74-15h.09c10.66-.8,9.54,15.6,8.43,23.5"/><path class="cls-67" d="M1252.23,255.41c-1.39,4.1-5.09,5.6-8.52,6.5a30.23,30.23,0,0,1-11.21.6.58.58,0,0,1-.38-.1l1.39,1.6.75,2.3v8.5L1223.51,287s-.37.3-.93.7c.09-3.5.28-7,.28-9.8,0-6.1,1.39-14.6,2.69-17.2a5.63,5.63,0,0,1,.92-1.2c.47-.4.84-.8,1.21-1.1,5-4.4,5.83-3.8,5.83-3.8l11.22-3.7.55-.2a1.87,1.87,0,0,1,.74.1h0a5.71,5.71,0,0,1,1,.2c.37.1.84.2,1.39.3v-.7a4.21,4.21,0,0,1,1.12-.1l-.47.1c2.23,1,3.89,2.8,3.15,4.8"/><path class="cls-67" d="M1262.43,264.51a32.42,32.42,0,0,0-.84-5,23.55,23.55,0,0,1,.84,5"/><path class="cls-68" d="M1242.6,262.11A22.22,22.22,0,0,1,1227,259c.28-.2.46-.5.74-.7a21.39,21.39,0,0,0,14.64,3c8.9-1.3,9.73-4.7,9.54-7.1-.18-2-3-3.4-3.52-3.7l1-.1s3.15,1.7,3.43,4.1c.09,2.5-.74,6.2-10.28,7.6"/><path class="cls-63" d="M1231.94,224.41c6.76,1.1,10.28-.6,12.88,2.6,2.32,2.8-1.48,10.6,1.39,14.4,2,2.8,9.27-.2,11-5.7,1.48-6.9.18-13.7-2.32-16.6-5.56-6.5-15.1-7.5-22.42-5.7a18.49,18.49,0,0,0-7.79,3.7c-.93,2.8.37,6.2,7.23,7.3"/><path class="cls-63" d="M1231.57,225.11c6.76,1.2,10.19-.6,12.79,2.8,2.31,2.9-1.49,11.2,1.39,15.2,2,2.9,9.17-.2,10.93-6,1.48-7.3.19-14.5-2.32-17.5-5.56-6.9-15-7.9-22.24-6a17.86,17.86,0,0,0-7.69,3.9c-.83,2.8.37,6.4,7.14,7.6"/><path class="cls-69" d="M1227.31,244.11a8.24,8.24,0,0,0,.74,1.2c3.24,3.8,9.45,4,13.34,3.1,1.58-.4,1.85-4.4,1.67-9-.37-6.5-1.67-14.2-1.67-14.2l-15.94,1c0-.1-.55,12.9,1.86,17.9"/><path class="cls-31" d="M1248.16,251a3,3,0,0,1,.64,4.19h0c-1.66,2.4-5.83,3.6-9.63,3s-8.06-2.2-8.53-2.2,3-2.4,3-2.4l14.55-2.6"/><path class="cls-70" d="M1239.35,241.21h0l3.62-1.8a29.79,29.79,0,0,1-.19,6.4h0l5.56-1.6v8.7a3.75,3.75,0,0,1-2.22,3.1,13.58,13.58,0,0,1-10.47,0c-2.51-1.1-2.14-2.7-2.14-2.7v-4.7a10.54,10.54,0,0,1-2.31-.8,7.21,7.21,0,0,1-4-3.6c7,3.6,12.14-3,12.14-3"/><path class="cls-71" d="M1222.21,221.71c.09,2.6,4.35,5.2,6.49,7.2,3.15,2.9-.37,7.5,1.76,7.9s1.85-6.1,5.83-3.7c2.14,1.3,3.53,10.1,3.53,12.3s7.5,4.8,10.84,1.8a21,21,0,0,0,6.48-11.3c-1.76,5.5-9,8.4-11,5.7-2.88-3.9.92-11.6-1.39-14.4-2.6-3.2-6.12-1.5-12.88-2.6s-8.07-4.5-7.14-7.2h0a5.76,5.76,0,0,0-2.5,4.3"/><path class="cls-67" d="M1232.59,279.31c-2.32,3.5-10.75,17-16,16.9s-6-4.8-5-8.3c.1-.3.19-.5.28-.8,1.39-3.5,8.8-25.3,14-26.5a7.1,7.1,0,0,1,6.68,2.3,11.56,11.56,0,0,1,2,3.2c1.67,3.6.37,9.7-1.94,13.2"/><path class="cls-72" d="M1232.68,339.61v36.7c-2.13.2-5.65,0-6.49-2.1,0-.2-.37-3.5-.46-4.5a364.33,364.33,0,0,1-2.13-46c1.48.2,9.08,2.2,9.08,15.9"/><path class="cls-72" d="M1251.31,372.21a3.94,3.94,0,0,1-2.78-2.2s-.47-1.4-1.12-3.9l-.09-.5c-.09-.4-.28-.9-.37-1.4-1.39-5.8-3.61-20.1-5-32.6,2.31,2,4.72,5.7,5.56,12.3,1.2,9.1,2.78,20.6,3.8,28.3"/><path class="cls-68" d="M1232.59,279.31c-2.32,3.5-10.75,17-16,16.9s-6-4.8-5-8.3c4.54,4.5,10.94-2.1,17.24-10.3s3.71-14.6,3.71-14.6h0a11.56,11.56,0,0,1,2,3.2c1.67,3.5.37,9.6-1.94,13.1"/><path class="cls-68" d="M1262,285.11c-.09,1.2-2.31,3.5-2.78,3.4,0,.3.65,20.9.74,21.9.28,2.8-2.78,6.7-6.76,8.8a22.77,22.77,0,0,1-5.65,2l-.93-9-1,9.4a32.39,32.39,0,0,1-14.83-1.1c1.12-7.9,2.23-24.2-8.43-23.6h-.09c.09-3,.28-6.2.37-9.2.56-.4.93-.7.93-.7l10.75-12.2v-8.5l-.75-2.3-1.39-1.6c.1,0,.28.1.38.1a30.23,30.23,0,0,0,11.21-.6c3.43-.9,7.13-2.5,8.52-6.5.74-2.1-.92-3.8-3.33-4.8l.46-.1a9.78,9.78,0,0,1,5.1,1l1.11.6c5.28,3.2,6.76,8.3,6.76,14.5a173,173,0,0,1-.37,18.5"/><path class="cls-68" d="M1261.31,258.81a12.61,12.61,0,0,0-5.56-6.7l-1.11-.6a9,9,0,0,0-5.09-1c6.2-1.5,10,2.8,11.76,8.3"/><path class="cls-73" d="M1374.55,198.51a19.56,19.56,0,0,0-6.12-5.4,10.41,10.41,0,0,0-3-1.1h0a8.43,8.43,0,0,0-1.58-.2,7.59,7.59,0,0,0-1.57.2l-6.58-9.1h0a11.61,11.61,0,0,1,3.7-.6,19.27,19.27,0,0,1,9.09,2.6,37.42,37.42,0,0,1,12.69,11.5l-6.67,2.1"/><path class="cls-74" d="M1377.7,220.71a20.45,20.45,0,0,1-8.43-2.2v-1.6l.09-6.6a8.61,8.61,0,0,0,3.89.9,4.15,4.15,0,0,0,4.26-2.7,5.57,5.57,0,0,0,.37-2.1,12.53,12.53,0,0,0-1.94-6.2l6.67-2.1c2.69,4.3,4.26,8.9,4.26,13s-1.67,7.2-4.54,8.6h0l-.83.4h0a16.28,16.28,0,0,1-3.8.6"/><path class="cls-15" d="M1367.32,217.51c-9.54-5.5-17.14-16.8-17.14-25.6,0-4.1,1.57-7,4.26-8.4l6.67,9.1a4.69,4.69,0,0,0-1.94,4.1c0,4.4,3.61,9.8,8.24,12.7l-.09,8.1"/><path class="cls-31" d="M1387.34,193.91l-5.84,2.5a38.14,38.14,0,0,0-12.79-11.6c-5-2.6-9.54-3.2-12.79-2l5.84-2.5c3.34-1.2,7.78-.7,12.79,2a38.23,38.23,0,0,1,12.79,11.6"/><path class="cls-31" d="M1392.71,208.61a10.45,10.45,0,0,1-1.3,5.5,7.85,7.85,0,0,1-3.61,3.2l-.09.1-.28.1-5.1,2.2c2.87-1.4,4.54-4.4,4.54-8.6a25.12,25.12,0,0,0-4.26-13l-6.67,2.1,5.84-2.5,6.67-2.1c2.69,4.3,4.26,8.9,4.26,13"/><path class="cls-31" d="M1377.24,208.51c-1,2.7-4.27,3.5-8.16,1.8l-.09,6.6-1.67.7.09-8.2c-4.63-2.9-8.24-8.4-8.24-12.7a4.69,4.69,0,0,1,1.94-4.1l-6.67-9.1,1.11-.5,6.58,9.1a5.63,5.63,0,0,1,3.15,0,5.69,5.69,0,0,0-.37,2.2c0,4.4,3.62,9.8,8.25,12.7v1.6l1.67-.7,2.41.6"/><path class="cls-31" d="M1436.26,228.81v3.9l-3.89,1.9v-3.9l-36.14-19.1,3.89-1.9,36.14,19.1"/><path class="cls-31" d="M1421.07,212.61v3.9l-3.9,1.9v-3.9l-20.94-11.1,3.89-1.9,21,11.1"/><path class="cls-31" d="M1436.26,236.81v3.9l-3.89,1.9v-3.9l-36.14-19.1,3.89-1.9,32.07,16.9,4.07,2.2"/><path class="cls-15" d="M1417.17,218.41l-20.94-11v-3.9l20.94,11.1v3.8"/><path class="cls-15" d="M1432.37,234.61l-36.14-19.1v-3.9l36.14,19.1v3.9"/><path class="cls-15" d="M1432.37,242.61l-36.14-19.1v-3.9l36.14,19.1v3.9"/><path class="cls-1" d="M1200.84,401.76c0-7.9-7-18-15.66-22.6a16,16,0,0,0-7.78-2.1,43,43,0,0,0-18.9-21.1c-8.34-4.4-15.48-3.7-18.81,1a31,31,0,0,0-7.42-5.7c-5.46-2.9-10.28-2.9-13.06-.5h0l-10.2,7.4,13.26,9.5a32.68,32.68,0,0,0,10.37,10.1v.1l14.74,7.8,41.33,29.5,9.26-6.6a8.7,8.7,0,0,0,2.87-6.8"/><g class="cls-75"><path class="cls-76" d="M1200.84,401.76c0-7.9-7-18-15.66-22.6a16,16,0,0,0-7.78-2.1,43,43,0,0,0-18.9-21.1c-8.34-4.4-15.48-3.7-18.81,1a31,31,0,0,0-7.42-5.7c-5.46-2.9-10.28-2.9-13.06-.5h0l-10.2,7.4,13.26,9.5a32.68,32.68,0,0,0,10.37,10.1v.1l14.74,7.8,41.33,29.5,9.26-6.6a8.7,8.7,0,0,0,2.87-6.8"/></g><path class="cls-77" d="M1167.26,384.31a43,43,0,0,0-18.9-21.1c-8.34-4.4-15.48-3.7-18.81,1a31,31,0,0,0-7.42-5.7c-8.71-4.6-15.66-1.9-15.66,6.1,0,7.5,6.4,17,14.55,21.9v.1l54.12,28.5c8.71,4.6,15.66,1.9,15.66-6.1s-7-18-15.66-22.6A17.81,17.81,0,0,0,1167.26,384.31Z"/><path class="cls-5" d="M0,712.4V604.1s88.7,43.7,248.4,43.7,260-77.2,451.6-77.2,369.6,130.9,511.6,130.9c61.9,0,120.6-24.9,170.6-53,40.8-23,98.8-87.7,98.8-87.7h58.2c-1.3,21.9,0,168.9,0,168.9H0Z"/><path class="cls-5" d="M-.1,709V622.4s3.7,21.2,86.6,12.3c38.3-4.1,81.1-10.3,148-23.9,96.7-31.8,105.8-41.1,175.6-56,67.1-14.3,187.5,6.1,269.9,18.2,51.4,12.1,86.1,17.6,125.4,30.3,109.1,35.3,175.2,40.3,271.9,19.1C1208.7,593.6,1220.8,514,1259.7,514c13.5,0,79,34.2,127.2,72.8,14.6,11.7,30.9,18.4,40.4,30.2,9,5.6,23.4,21.5,38.2,32.8,34.2,26.2,70.4,59,70.4,59l-1518,24L-.1,731Z"/></g></g></svg>